<svg width="1542" height="346" viewBox="0 0 1542 346" fill="none" xmlns="http://www.w3.org/2000/svg">
<g clip-path="url(#clip0_143_3085)">
<g clip-path="url(#clip1_143_3085)">
<path fill-rule="evenodd" clip-rule="evenodd" d="M164.5 1.49999C180.661 0.338491 196.995 0.171791 213.5 0.999991C215.382 1.19809 217.048 1.69809 218.5 2.49999C200.512 1.69079 182.512 1.35749 164.5 1.49999Z" fill="#84F8F8"/>
<path fill-rule="evenodd" clip-rule="evenodd" d="M150.5 4.50001C147.997 5.37051 145.33 6.03721 142.5 6.50001C144.635 4.63101 147.302 3.96441 150.5 4.50001Z" fill="#B1FAFA"/>
<path fill-rule="evenodd" clip-rule="evenodd" d="M164.5 1.50003C182.512 1.35753 200.512 1.69083 218.5 2.50003C221.85 2.33503 225.183 2.50173 228.5 3.00003C235.32 4.92163 241.987 7.08823 248.5 9.50003C248.5 10.5 248.5 11.5 248.5 12.5C247.127 12.3433 245.793 12.51 244.5 13C244.833 13.3333 245.167 13.6667 245.5 14C242.667 15.8333 242.833 17.3333 246 18.5C246.408 16.5904 247.575 15.5904 249.5 15.5C251.878 17.5305 251.211 18.5305 247.5 18.5C247.688 20.1033 247.188 21.4366 246 22.5C243.725 19.8565 241.391 19.8565 239 22.5C238 22.1667 237 21.8333 236 21.5C232.929 24.2424 229.596 26.5757 226 28.5C225.167 27.5 224.333 26.5 223.5 25.5C221.833 26.8333 220.167 28.1667 218.5 29.5C216.162 27.9893 215.496 28.3227 216.5 30.5C214.517 31.982 212.684 33.649 211 35.5C209.534 33.675 207.701 33.175 205.5 34C206.623 35.044 207.956 35.71 209.5 36C208.333 36.5 207.5 37.333 207 38.5C205.187 37.391 204.354 38.058 204.5 40.5C203.5 40.5 202.5 40.5 201.5 40.5C201.719 41.675 201.386 42.675 200.5 43.5C199.719 42.271 199.219 40.938 199 39.5C198.333 40.833 197.667 40.833 197 39.5C197.305 41.443 197.305 43.443 197 45.5C196.035 47.26 194.868 47.594 193.5 46.5C195.98 45.585 196.647 44.085 195.5 42C192.672 42.346 190.505 43.846 189 46.5C186.6 43.851 184.6 41.518 183 39.5C182.5 39.833 182 40.167 181.5 40.5C183.27 41.82 183.603 43.32 182.5 45C180.567 45.251 178.734 45.751 177 46.5C175.982 44.436 174.649 44.102 173 45.5C168.338 42.96 167.338 44.294 170 49.5C170.414 49.957 170.914 50.291 171.5 50.5C172.693 46.783 174.026 46.617 175.5 50C174.631 51.869 173.465 52.369 172 51.5C171.517 52.448 171.351 53.448 171.5 54.5C167.754 55.214 166.754 54.047 168.5 51C168.204 49.112 167.704 47.278 167 45.5C166.647 47.074 165.98 48.741 165 50.5C164.085 49.672 163.419 48.672 163 47.5C161.667 48.833 160.333 48.833 159 47.5C158.167 48.5 157.333 49.5 156.5 50.5C155.15 49.05 153.484 48.383 151.5 48.5C152.248 50.584 152.248 52.584 151.5 54.5C156.426 60.043 155.426 61.709 148.5 59.5C151.856 58.347 151.856 56.681 148.5 54.5C146.465 56.294 144.298 56.627 142 55.5C140.739 55.759 139.739 56.426 139 57.5C138.316 56.216 138.483 55.049 139.5 54C138.258 53.689 137.258 54.189 136.5 55.5C135.289 54.726 135.289 53.893 136.5 53C135.584 52.626 134.75 52.126 134 51.5C133.843 53.995 133.676 56.328 133.5 58.5C130.219 56.093 127.052 56.426 124 59.5C123.692 58.692 123.192 58.025 122.5 57.5C122.477 58.877 121.811 60.377 120.5 62C123.39 63.892 123.056 64.725 119.5 64.5C119.66 62.801 119.494 61.134 119 59.5C116.647 61.682 113.814 63.015 110.5 63.5C109.283 61.607 107.283 60.274 104.5 59.5C102.999 60.752 101.332 61.752 99.5 62.5C99.977 63.478 100.643 64.311 101.5 65C100.126 68.41 99.459 68.243 99.5 64.5C97.833 64.5 96.167 64.5 94.5 64.5C94.851 66.869 95.018 69.203 95 71.5C93.172 69.919 91.172 68.585 89 67.5C87.36 71.278 86.193 71.278 85.5 67.5C83.169 67.502 81.169 66.669 79.5 65C80.549 61.854 80.383 58.688 79 55.5C77.683 56.68 77.516 58.18 78.5 60C78.491 61.404 77.991 62.57 77 63.5C74.227 63.116 71.56 61.783 69 59.5C67.812 60.563 67.312 61.897 67.5 63.5C63.526 63.85 60.86 62.183 59.5 58.5C59.833 58.167 60.167 57.833 60.5 57.5C63.065 61.094 65.731 61.261 68.5 58C67.333 57.5 66.5 56.667 66 55.5C65.667 56.167 65.333 56.833 65 57.5C62.854 53.267 64.021 50.1 68.5 48C68 47.5 67.5 47 67 46.5C66.184 47.823 65.017 48.489 63.5 48.5C86.156 27.7152 112.49 13.7152 142.5 6.50003C145.33 6.03723 147.997 5.37053 150.5 4.50003C155.212 3.71463 159.879 2.71463 164.5 1.50003Z" fill="#18F0F1"/>
<path fill-rule="evenodd" clip-rule="evenodd" d="M300.5 33.5C315.016 43.343 328.016 55.01 339.5 68.5C337.88 69.841 336.88 71.674 336.5 74C337.056 74.383 337.389 74.883 337.5 75.5C336.71 76.609 336.21 77.942 336 79.5C334.708 77.751 333.542 75.918 332.5 74C331.216 73.316 330.049 73.483 329 74.5C326.457 73.124 326.291 71.957 328.5 71C327.299 70.097 326.465 68.931 326 67.5C325.692 68.308 325.192 68.975 324.5 69.5C324.566 65.749 323.233 65.582 320.5 69C323.131 70.691 322.797 71.858 319.5 72.5C318.897 73.635 318.564 74.635 318.5 75.5C316.997 74.41 316.664 73.243 317.5 72C313.388 68.403 312.722 68.903 315.5 73.5C315.167 73.833 314.833 74.167 314.5 74.5C312.807 72.973 310.973 71.64 309 70.5C308.009 71.939 306.676 72.939 305 73.5C303.025 73.512 300.858 73.178 298.5 72.5C298.906 74.109 298.906 75.443 298.5 76.5C297.702 74.922 297.202 73.256 297 71.5C295.552 76.144 292.385 78.144 287.5 77.5C287.62 71.798 285.62 70.965 281.5 75C283.663 75.245 285.33 76.245 286.5 78C286 78.5 285.5 79 285 79.5C284.261 78.426 283.261 77.759 282 77.5C280.37 78.713 278.536 79.546 276.5 80C280.578 81.299 281.078 83.132 278 85.5C275.653 83.986 273.82 81.986 272.5 79.5C271.914 79.709 271.414 80.043 271 80.5C268.599 79.033 266.099 78.199 263.5 78C264.056 78.383 264.389 78.883 264.5 79.5C257.735 76.357 251.069 73.023 244.5 69.5C235.317 66.195 225.983 63.529 216.5 61.5C217.693 59.246 219.36 58.58 221.5 59.5C224.711 57.807 227.378 56.14 229.5 54.5C230.72 56.385 232.053 58.718 233.5 61.5C235.825 63.579 238.158 63.745 240.5 62C236.918 61.405 236.584 60.071 239.5 58C237.595 57.174 237.261 56.007 238.5 54.5C239.192 55.025 239.692 55.692 240 56.5C240.318 54.939 241.151 53.772 242.5 53C241.549 52.282 241.383 51.449 242 50.5C243.613 52.85 244.446 55.183 244.5 57.5C245.167 56.5 245.833 55.5 246.5 54.5C246.402 55.616 246.902 56.616 248 57.5C249.727 57.354 249.894 56.687 248.5 55.5C250.207 49.566 253.707 48.232 259 51.5C260 51.167 261 50.833 262 50.5C262.253 51.535 263.086 52.535 264.5 53.5C265.706 51.516 265.706 49.516 264.5 47.5C266.045 46.548 267.712 46.215 269.5 46.5C269.281 45.325 269.614 44.325 270.5 43.5C271.303 46.054 270.303 47.888 267.5 49C268.397 51.127 269.731 51.627 271.5 50.5C270.167 49.5 270.167 48.5 271.5 47.5C273.889 46.398 275.723 44.731 277 42.5C277.245 44.663 278.245 46.33 280 47.5C282.096 46.285 281.929 45.451 279.5 45C280.416 44.626 281.25 44.126 282 43.5C284.072 46.154 285.739 45.82 287 42.5C288.677 44.676 290.511 46.676 292.5 48.5C294.954 49.886 296.954 49.386 298.5 47C298.37 45.941 297.87 45.108 297 44.5C296.385 46.116 295.385 47.449 294 48.5C293.535 47.069 292.701 45.903 291.5 45C292.56 43.702 293.726 42.535 295 41.5C295.772 41.645 296.439 41.978 297 42.5C297.204 38.163 299.037 37.663 302.5 41C301.5 42 300.5 43 299.5 44C301.888 44.041 304.221 44.874 306.5 46.5C307.415 45.672 308.081 44.672 308.5 43.5C304.682 41.178 301.349 38.345 298.5 35C299.416 34.722 300.082 34.222 300.5 33.5Z" fill="#1BE4EF"/>
<path fill-rule="evenodd" clip-rule="evenodd" d="M248.5 9.5C267.337 14.6483 284.67 22.6483 300.5 33.5C300.082 34.222 299.416 34.722 298.5 35C301.349 38.345 304.682 41.178 308.5 43.5C308.081 44.672 307.415 45.672 306.5 46.5C304.221 44.874 301.888 44.041 299.5 44C300.5 43 301.5 42 302.5 41C299.037 37.663 297.204 38.163 297 42.5C296.439 41.978 295.772 41.645 295 41.5C293.726 42.535 292.56 43.702 291.5 45C292.701 45.903 293.535 47.069 294 48.5C295.385 47.449 296.385 46.116 297 44.5C297.87 45.108 298.37 45.941 298.5 47C296.954 49.386 294.954 49.886 292.5 48.5C290.511 46.676 288.677 44.676 287 42.5C285.739 45.82 284.072 46.154 282 43.5C281.25 44.126 280.416 44.626 279.5 45C281.929 45.451 282.096 46.285 280 47.5C278.245 46.33 277.245 44.663 277 42.5C275.723 44.731 273.889 46.398 271.5 47.5C270.167 48.5 270.167 49.5 271.5 50.5C269.731 51.627 268.397 51.127 267.5 49C270.303 47.888 271.303 46.054 270.5 43.5C269.614 44.325 269.281 45.325 269.5 46.5C267.712 46.215 266.045 46.548 264.5 47.5C265.706 49.516 265.706 51.516 264.5 53.5C263.086 52.535 262.253 51.535 262 50.5C261 50.833 260 51.167 259 51.5C253.707 48.232 250.207 49.566 248.5 55.5C249.894 56.687 249.727 57.354 248 57.5C246.902 56.616 246.402 55.616 246.5 54.5C245.833 55.5 245.167 56.5 244.5 57.5C244.446 55.183 243.613 52.85 242 50.5C241.383 51.449 241.549 52.282 242.5 53C241.151 53.772 240.318 54.939 240 56.5C239.692 55.692 239.192 55.025 238.5 54.5C237.261 56.007 237.595 57.174 239.5 58C236.584 60.071 236.918 61.405 240.5 62C238.158 63.745 235.825 63.579 233.5 61.5C232.053 58.718 230.72 56.385 229.5 54.5C227.378 56.14 224.711 57.807 221.5 59.5C219.36 58.58 217.693 59.246 216.5 61.5C214.435 61.483 212.435 61.15 210.5 60.5C197.163 57.907 183.83 57.907 170.5 60.5C159.325 62.792 148.325 65.958 137.5 70C124.836 76.492 112.836 83.992 101.5 92.5C101.483 90.972 100.816 90.472 99.5 91C97.206 93.686 94.706 96.186 92 98.5C89.677 94.578 89.177 94.912 90.5 99.5C88.726 100.187 87.059 101.02 85.5 102C85.821 103.937 84.821 105.437 82.5 106.5C81.505 111.306 79.838 111.306 77.5 106.5C76.707 106.931 75.873 107.265 75 107.5C72.744 105.915 70.244 105.248 67.5 105.5C67.785 103.712 67.452 102.045 66.5 100.5C62.808 102.454 58.974 104.121 55 105.5C54.833 105.167 54.667 104.833 54.5 104.5C57.066 103.721 59.066 102.221 60.5 100C58.401 97.43 56.068 97.096 53.5 99C54.167 99.333 54.833 99.667 55.5 100C53.671 100.273 52.171 101.107 51 102.5C49.086 101.324 49.252 100.324 51.5 99.5C49.944 97.299 48.777 97.299 48 99.5C46 98.833 44 98.167 42 97.5C41.689 96.258 42.189 95.258 43.5 94.5C40.983 92.543 39.816 89.876 40 86.5C39.167 85 38 83.833 36.5 83C37.667 82.5 38.5 81.667 39 80.5C39.414 80.957 39.914 81.291 40.5 81.5C41.167 79.5 41.833 77.5 42.5 75.5C48.072 70.983 47.739 69.983 41.5 72.5C47.756 63.575 55.089 55.575 63.5 48.5C65.017 48.489 66.184 47.823 67 46.5C67.5 47 68 47.5 68.5 48C64.021 50.1 62.854 53.267 65 57.5C65.333 56.833 65.667 56.167 66 55.5C66.5 56.667 67.333 57.5 68.5 58C65.731 61.261 63.065 61.094 60.5 57.5C60.167 57.833 59.833 58.167 59.5 58.5C60.86 62.183 63.526 63.85 67.5 63.5C67.312 61.897 67.812 60.563 69 59.5C71.56 61.783 74.227 63.116 77 63.5C77.991 62.57 78.491 61.404 78.5 60C77.516 58.18 77.683 56.68 79 55.5C80.383 58.688 80.549 61.854 79.5 65C81.169 66.669 83.169 67.502 85.5 67.5C86.193 71.278 87.36 71.278 89 67.5C91.172 68.585 93.172 69.919 95 71.5C95.018 69.203 94.851 66.869 94.5 64.5C96.167 64.5 97.833 64.5 99.5 64.5C99.459 68.243 100.126 68.41 101.5 65C100.643 64.311 99.977 63.478 99.5 62.5C101.332 61.752 102.999 60.752 104.5 59.5C107.283 60.274 109.283 61.607 110.5 63.5C113.814 63.015 116.647 61.682 119 59.5C119.494 61.134 119.66 62.801 119.5 64.5C123.056 64.725 123.39 63.892 120.5 62C121.811 60.377 122.477 58.877 122.5 57.5C123.192 58.025 123.692 58.692 124 59.5C127.052 56.426 130.219 56.093 133.5 58.5C133.676 56.328 133.843 53.995 134 51.5C134.75 52.126 135.584 52.626 136.5 53C135.289 53.893 135.289 54.726 136.5 55.5C137.258 54.189 138.258 53.689 139.5 54C138.483 55.049 138.316 56.216 139 57.5C139.739 56.426 140.739 55.759 142 55.5C144.298 56.627 146.465 56.294 148.5 54.5C151.856 56.681 151.856 58.347 148.5 59.5C155.426 61.709 156.426 60.043 151.5 54.5C152.248 52.584 152.248 50.584 151.5 48.5C153.484 48.383 155.15 49.05 156.5 50.5C157.333 49.5 158.167 48.5 159 47.5C160.333 48.833 161.667 48.833 163 47.5C163.419 48.672 164.085 49.672 165 50.5C165.98 48.741 166.647 47.074 167 45.5C167.704 47.278 168.204 49.112 168.5 51C166.754 54.047 167.754 55.214 171.5 54.5C171.351 53.448 171.517 52.448 172 51.5C173.465 52.369 174.631 51.869 175.5 50C174.026 46.617 172.693 46.783 171.5 50.5C170.914 50.291 170.414 49.957 170 49.5C167.338 44.294 168.338 42.96 173 45.5C174.649 44.102 175.982 44.436 177 46.5C178.734 45.751 180.567 45.251 182.5 45C183.603 43.32 183.27 41.82 181.5 40.5C182 40.167 182.5 39.833 183 39.5C184.6 41.518 186.6 43.851 189 46.5C190.505 43.846 192.672 42.346 195.5 42C196.647 44.085 195.98 45.585 193.5 46.5C194.868 47.594 196.035 47.26 197 45.5C197.305 43.443 197.305 41.443 197 39.5C197.667 40.833 198.333 40.833 199 39.5C199.219 40.938 199.719 42.271 200.5 43.5C201.386 42.675 201.719 41.675 201.5 40.5C202.5 40.5 203.5 40.5 204.5 40.5C204.354 38.058 205.187 37.391 207 38.5C207.5 37.333 208.333 36.5 209.5 36C207.956 35.71 206.623 35.044 205.5 34C207.701 33.175 209.534 33.675 211 35.5C212.684 33.649 214.517 31.982 216.5 30.5C215.496 28.3227 216.162 27.9893 218.5 29.5C220.167 28.1667 221.833 26.8333 223.5 25.5C224.333 26.5 225.167 27.5 226 28.5C229.596 26.5757 232.929 24.2424 236 21.5C237 21.8333 238 22.1667 239 22.5C241.391 19.8565 243.725 19.8565 246 22.5C247.188 21.4366 247.688 20.1033 247.5 18.5C251.211 18.5305 251.878 17.5305 249.5 15.5C247.575 15.5904 246.408 16.5904 246 18.5C242.833 17.3333 242.667 15.8333 245.5 14C245.167 13.6667 244.833 13.3333 244.5 13C245.793 12.51 247.127 12.3433 248.5 12.5C248.5 11.5 248.5 10.5 248.5 9.5Z" fill="#19EAF0"/>
<path fill-rule="evenodd" clip-rule="evenodd" d="M210.5 60.4999C197.167 60.4999 183.833 60.4999 170.5 60.4999C183.83 57.9069 197.163 57.9069 210.5 60.4999Z" fill="#C2F8F9"/>
<path fill-rule="evenodd" clip-rule="evenodd" d="M337.5 75.5C339.265 76.461 341.265 76.795 343.5 76.5C343.351 77.552 343.517 78.552 344 79.5C348.754 84.671 351.587 90.671 352.5 97.5C353.833 97.5 355.167 97.5 356.5 97.5C356.325 100.329 357.658 101.996 360.5 102.5C359.636 106.419 360.636 109.919 363.5 113C363.043 113.414 362.709 113.914 362.5 114.5C363.853 115.685 365.02 117.019 366 118.5C366.398 122.628 367.898 126.294 370.5 129.5C371.027 132.025 371.027 134.692 370.5 137.5C368.937 136.055 367.604 134.389 366.5 132.5C365.713 133.242 365.047 134.075 364.5 135C365.672 135.419 366.672 136.085 367.5 137C365.834 139.48 365.001 142.313 365 145.5C364.887 143.026 363.887 141.026 362 139.5C361.86 137.479 361.693 135.645 361.5 134C360.216 133.316 359.049 133.483 358 134.5C357.465 132.729 356.631 132.396 355.5 133.5C356.48 134.981 357.647 136.315 359 137.5C359.688 138.332 359.521 138.998 358.5 139.5C356.025 138.313 353.691 138.647 351.5 140.5C348.596 134.921 346.929 135.254 346.5 141.5C342.614 140.412 342.614 139.579 346.5 139C345.643 138.311 344.977 137.478 344.5 136.5C345.645 135.109 345.645 133.776 344.5 132.5C343.167 134.167 341.833 135.833 340.5 137.5C339.719 136.271 339.219 134.938 339 133.5C337.174 134.841 336.007 134.341 335.5 132C336.793 126.872 338.46 126.538 340.5 131C343.167 131.667 345.833 131.667 348.5 131C346.176 129.626 343.843 129.293 341.5 130C341.5 128.333 341.5 126.667 341.5 125C340.107 123.829 339.273 122.329 339 120.5C337.312 121.325 337.145 122.325 338.5 123.5C337.277 124.614 335.944 124.781 334.5 124C335.696 123.346 335.696 122.846 334.5 122.5C333.852 124.149 332.852 125.482 331.5 126.5C329.059 125.673 326.893 125.673 325 126.5C323.566 124.864 321.733 123.864 319.5 123.5C317.997 124.052 316.331 124.052 314.5 123.5C314.36 125.124 315.027 126.29 316.5 127C315.167 127.667 313.833 127.667 312.5 127C313.747 125.506 313.747 124.006 312.5 122.5C311.833 123.167 311.167 123.833 310.5 124.5C309.667 123.5 308.833 122.5 308 121.5C306.724 118 304.891 114.833 302.5 112C304.26 111.035 304.594 109.868 303.5 108.5C300.885 106.721 298.218 106.055 295.5 106.5C296.853 107.524 297.52 108.857 297.5 110.5C288.094 98.426 277.094 88.093 264.5 79.5C264.389 78.883 264.056 78.383 263.5 78C266.099 78.199 268.599 79.033 271 80.5C271.414 80.043 271.914 79.709 272.5 79.5C273.82 81.986 275.653 83.986 278 85.5C281.078 83.132 280.578 81.299 276.5 80C278.536 79.546 280.37 78.713 282 77.5C283.261 77.759 284.261 78.426 285 79.5C285.5 79 286 78.5 286.5 78C285.33 76.245 283.663 75.245 281.5 75C285.62 70.965 287.62 71.798 287.5 77.5C292.385 78.144 295.552 76.144 297 71.5C297.202 73.256 297.702 74.922 298.5 76.5C298.906 75.443 298.906 74.109 298.5 72.5C300.858 73.178 303.025 73.512 305 73.5C306.676 72.939 308.009 71.939 309 70.5C310.973 71.64 312.807 72.973 314.5 74.5C314.833 74.167 315.167 73.833 315.5 73.5C312.722 68.903 313.388 68.403 317.5 72C316.664 73.243 316.997 74.41 318.5 75.5C318.564 74.635 318.897 73.635 319.5 72.5C322.797 71.858 323.131 70.691 320.5 69C323.233 65.582 324.566 65.749 324.5 69.5C325.192 68.975 325.692 68.308 326 67.5C326.465 68.931 327.299 70.097 328.5 71C326.291 71.957 326.457 73.124 329 74.5C330.049 73.483 331.216 73.316 332.5 74C333.542 75.918 334.708 77.751 336 79.5C336.21 77.942 336.71 76.609 337.5 75.5Z" fill="#17DCEE"/>
<path fill-rule="evenodd" clip-rule="evenodd" d="M101.5 92.4999C90.969 103.348 81.635 115.014 73.5 127.5C71.563 128.59 69.73 129.924 68 131.5C66.109 138.176 63.443 144.509 60 150.5C58.956 149.377 58.29 148.044 58 146.5C57.667 147.167 57.333 147.833 57 148.5C55.951 147.483 54.784 147.316 53.5 148C56.786 152.891 55.452 155.391 49.5 155.5C49.453 152.072 48.287 149.072 46 146.5C43.667 147.833 41.333 147.833 39 146.5C36.95 150.156 35.617 149.822 35 145.5C35.75 144.874 36.584 144.374 37.5 144C35.671 143.727 34.171 142.893 33 141.5C31.982 142.706 31.482 142.373 31.5 140.5C32.761 137.18 34.428 136.846 36.5 139.5C38.373 139.518 38.706 139.018 37.5 138C36.069 137.535 34.903 136.701 34 135.5C31.667 136.833 29.333 138.167 27 139.5C26.02 137.941 25.1867 136.274 24.5 134.5C23.2798 135.711 22.1131 135.711 21 134.5C19.6043 136.527 17.9376 136.86 16 135.5C15.6667 136.167 15.3333 136.833 15 137.5C15 135.5 15 133.5 15 131.5C14.5017 129.456 13.335 128.122 11.5 127.5C17.7508 107.043 27.751 88.7099 41.5 72.4999C47.739 69.9829 48.072 70.9829 42.5 75.4999C41.833 77.4999 41.167 79.4999 40.5 81.4999C39.914 81.2909 39.414 80.9569 39 80.4999C38.5 81.6669 37.667 82.4999 36.5 82.9999C38 83.8329 39.167 84.9999 40 86.4999C39.816 89.8759 40.983 92.5429 43.5 94.4999C42.189 95.2579 41.689 96.2579 42 97.4999C44 98.1669 46 98.8329 48 99.4999C48.777 97.2989 49.944 97.2989 51.5 99.4999C49.252 100.324 49.086 101.324 51 102.5C52.171 101.107 53.671 100.273 55.5 99.9999C54.833 99.6669 54.167 99.3329 53.5 98.9999C56.068 97.0959 58.401 97.4299 60.5 99.9999C59.066 102.221 57.066 103.721 54.5 104.5C54.667 104.833 54.833 105.167 55 105.5C58.974 104.121 62.808 102.454 66.5 100.5C67.452 102.045 67.785 103.712 67.5 105.5C70.244 105.248 72.744 105.915 75 107.5C75.873 107.265 76.707 106.931 77.5 106.5C79.838 111.306 81.505 111.306 82.5 106.5C84.821 105.437 85.821 103.937 85.5 102C87.059 101.02 88.726 100.187 90.5 99.4999C89.177 94.9119 89.677 94.5779 92 98.4999C94.706 96.1859 97.206 93.6859 99.5 90.9999C100.816 90.4719 101.483 90.9719 101.5 92.4999Z" fill="#19E3F0"/>
<path fill-rule="evenodd" clip-rule="evenodd" d="M212.5 117.5C211.233 116.913 210.233 116.913 209.5 117.5C210.986 119.302 211.986 121.302 212.5 123.5C213.552 123.351 214.552 123.517 215.5 124C213.715 125.163 211.715 125.83 209.5 126C210.191 127.067 210.691 128.234 211 129.5C212.569 129.153 214.402 128.986 216.5 129C217.211 130.255 218.044 131.421 219 132.5C221.829 131.326 222.829 132.326 222 135.5C219.891 135.434 217.725 135.101 215.5 134.5C214.416 135.665 213.583 136.998 213 138.5C212 137.5 211 136.5 210 135.5C206.571 138.691 205.404 138.191 206.5 134C203.983 133.743 201.65 134.41 199.5 136C202.215 136.875 203.548 138.708 203.5 141.5C207.133 141.443 207.3 142.443 204 144.5C202.74 142.183 200.74 139.849 198 137.5C197.464 139.567 197.964 141.401 199.5 143C198.833 143.333 198.167 143.667 197.5 144C199.44 143.822 201.107 144.822 202.5 147C200.871 147.585 199.371 148.419 198 149.5C197 148.833 196 148.167 195 147.5C195.027 148.788 194.027 149.788 192 150.5C190.951 149.483 189.784 149.316 188.5 150C190.09 151.046 191.59 152.213 193 153.5C193.688 154.332 193.521 154.998 192.5 155.5C191.575 154.359 190.741 154.359 190 155.5C187.779 153.286 185.612 150.953 183.5 148.5C182.914 148.709 182.414 149.043 182 149.5C182.091 143.787 179.258 141.12 173.5 141.5C173.785 143.288 173.452 144.955 172.5 146.5C171.667 144.5 170.833 142.5 170 140.5C169.086 141.654 168.253 141.487 167.5 140C171.355 135.62 170.021 134.287 163.5 136C164.5 136.833 165.5 137.667 166.5 138.5C164.187 139.971 163.853 141.804 165.5 144C165.167 144.5 164.833 145 164.5 145.5C163.131 143.876 161.464 143.376 159.5 144C160.059 144.725 160.392 145.558 160.5 146.5C159.723 148.447 158.723 150.28 157.5 152C159.936 153.332 159.936 154.499 157.5 155.5C155.576 148.25 157.576 142.416 163.5 138C162.17 134.632 162.67 131.465 165 128.5C166.832 129.858 168.665 130.192 170.5 129.5C169.689 128.784 169.022 127.95 168.5 127C169.317 125.51 170.15 124.01 171 122.5C172.275 124.717 173.275 127.051 174 129.5C175.579 127.542 175.412 125.542 173.5 123.5C174.313 122.186 175.313 121.019 176.5 120C175.667 119.167 174.833 118.333 174 117.5C172.871 119.141 171.371 120.141 169.5 120.5C170.29 119.206 171.29 118.039 172.5 117C186.061 108.474 199.394 108.641 212.5 117.5Z" fill="#1AE9F0"/>
<path fill-rule="evenodd" clip-rule="evenodd" d="M339.5 68.5C351.249 83.131 361.083 99.131 369 116.5C373.588 130.13 377.921 143.797 382 157.5C383.525 178.476 383.858 199.476 383 220.5C381.971 224.573 381.138 228.573 380.5 232.5C382.462 212.579 382.962 192.579 382 172.5C380.826 168.954 380.16 165.287 380 161.5C379.196 169.266 379.696 176.933 381.5 184.5C380.552 189.435 380.219 194.435 380.5 199.5C379.852 197.502 379.019 195.502 378 193.5C377.527 195.779 376.527 197.779 375 199.5C374.342 195.975 375.509 193.141 378.5 191C377.139 187.771 374.806 185.604 371.5 184.5C372.5 183.833 373.5 183.167 374.5 182.5C374.333 182.167 374.167 181.833 374 181.5C373 182.833 372 182.833 371 181.5C370.612 182.428 369.945 183.095 369 183.5C365.207 182.181 361.54 180.515 358 178.5C358.502 180.689 359.669 182.689 361.5 184.5C360.5 185.5 359.5 186.5 358.5 187.5C356.08 185.047 354.914 182.047 355 178.5C352.304 177.328 350.637 175.328 350 172.5C349.202 174.259 349.369 175.926 350.5 177.5C354.353 180.578 355.186 184.578 353 189.5C352.667 189.833 352.333 190.167 352 190.5C351.552 188.776 350.718 188.109 349.5 188.5C350.048 186.459 350.215 184.126 350 181.5C347.954 181.451 345.787 181.785 343.5 182.5C344.737 183.281 345.737 184.281 346.5 185.5C344.981 184.983 343.648 185.65 342.5 187.5C342.767 185.24 342.267 182.907 341 180.5C340.075 181.047 339.242 181.713 338.5 182.5C339.538 185.788 338.872 186.121 336.5 183.5C335.833 183.833 335.167 184.167 334.5 184.5C332.575 190.565 331.408 196.899 331 203.5C331.141 194.773 330.308 186.44 328.5 178.5C328.067 175.834 327.567 173.168 327 170.5C326.454 178.899 326.954 187.232 328.5 195.5C327.724 201.978 326.724 208.311 325.5 214.5C327.151 200.302 326.818 186.302 324.5 172.5C322.13 165.05 320.297 157.384 319 149.5C313.399 135.63 306.232 122.63 297.5 110.5C297.52 108.857 296.853 107.524 295.5 106.5C298.218 106.055 300.885 106.721 303.5 108.5C304.594 109.868 304.26 111.035 302.5 112C304.891 114.833 306.724 118 308 121.5C308.833 122.5 309.667 123.5 310.5 124.5C311.167 123.833 311.833 123.167 312.5 122.5C313.747 124.006 313.747 125.506 312.5 127C313.833 127.667 315.167 127.667 316.5 127C315.027 126.29 314.36 125.124 314.5 123.5C316.331 124.052 317.997 124.052 319.5 123.5C321.733 123.864 323.566 124.864 325 126.5C326.893 125.673 329.059 125.673 331.5 126.5C332.852 125.482 333.852 124.149 334.5 122.5C335.696 122.846 335.696 123.346 334.5 124C335.944 124.781 337.277 124.614 338.5 123.5C337.145 122.325 337.312 121.325 339 120.5C339.273 122.329 340.107 123.829 341.5 125C341.5 126.667 341.5 128.333 341.5 130C343.843 129.293 346.176 129.626 348.5 131C345.833 131.667 343.167 131.667 340.5 131C338.46 126.538 336.793 126.872 335.5 132C336.007 134.341 337.174 134.841 339 133.5C339.219 134.938 339.719 136.271 340.5 137.5C341.833 135.833 343.167 134.167 344.5 132.5C345.645 133.776 345.645 135.109 344.5 136.5C344.977 137.478 345.643 138.311 346.5 139C342.614 139.579 342.614 140.412 346.5 141.5C346.929 135.254 348.596 134.921 351.5 140.5C353.691 138.647 356.025 138.313 358.5 139.5C359.521 138.998 359.688 138.332 359 137.5C357.647 136.315 356.48 134.981 355.5 133.5C356.631 132.396 357.465 132.729 358 134.5C359.049 133.483 360.216 133.316 361.5 134C361.693 135.645 361.86 137.479 362 139.5C363.887 141.026 364.887 143.026 365 145.5C365.001 142.313 365.834 139.48 367.5 137C366.672 136.085 365.672 135.419 364.5 135C365.047 134.075 365.713 133.242 366.5 132.5C367.604 134.389 368.937 136.055 370.5 137.5C371.027 134.692 371.027 132.025 370.5 129.5C367.898 126.294 366.398 122.628 366 118.5C365.02 117.019 363.853 115.685 362.5 114.5C362.709 113.914 363.043 113.414 363.5 113C360.636 109.919 359.636 106.419 360.5 102.5C357.658 101.996 356.325 100.329 356.5 97.5C355.167 97.5 353.833 97.5 352.5 97.5C351.587 90.671 348.754 84.671 344 79.5C343.517 78.552 343.351 77.552 343.5 76.5C341.265 76.795 339.265 76.461 337.5 75.5C337.389 74.883 337.056 74.383 336.5 74C336.88 71.674 337.88 69.841 339.5 68.5Z" fill="#1ED7EE"/>
<path fill-rule="evenodd" clip-rule="evenodd" d="M11.5 127.5C13.335 128.122 14.5017 129.456 15 131.5C15 133.5 15 135.5 15 137.5C15.3333 136.833 15.6667 136.167 16 135.5C17.9376 136.86 19.6043 136.527 21 134.5C22.1131 135.711 23.2798 135.711 24.5 134.5C25.1867 136.274 26.02 137.941 27 139.5C29.333 138.167 31.667 136.833 34 135.5C34.903 136.701 36.069 137.535 37.5 138C38.706 139.018 38.373 139.518 36.5 139.5C34.428 136.846 32.761 137.18 31.5 140.5C31.482 142.373 31.982 142.706 33 141.5C34.171 142.893 35.671 143.727 37.5 144C36.584 144.374 35.75 144.874 35 145.5C35.617 149.822 36.95 150.156 39 146.5C41.333 147.833 43.667 147.833 46 146.5C48.287 149.072 49.453 152.072 49.5 155.5C55.452 155.391 56.786 152.891 53.5 148C54.784 147.316 55.951 147.483 57 148.5C57.333 147.833 57.667 147.167 58 146.5C58.29 148.044 58.956 149.377 60 150.5C63.443 144.509 66.109 138.176 68 131.5C69.73 129.924 71.563 128.59 73.5 127.5C71.528 133.44 69.028 139.107 66 144.5C60.284 160.324 57.45 176.657 57.5 193.5C56.833 186.655 56.167 179.655 55.5 172.5C54.669 179.811 54.169 187.144 54 194.5C53.26 196.377 52.427 197.877 51.5 199C51.492 202.154 52.158 202.321 53.5 199.5C54.661 203.795 54.828 208.129 54 212.5C53.94 208.529 53.107 205.529 51.5 203.5C50.167 203.5 48.833 203.5 47.5 203.5C47.92 205.674 47.92 207.674 47.5 209.5C46.694 207.224 45.694 204.891 44.5 202.5C42.276 201.22 40.276 201.553 38.5 203.5C37.961 200.834 36.628 198.667 34.5 197C34.833 196.667 35.167 196.333 35.5 196C32.086 195.768 31.419 196.601 33.5 198.5C32.132 199.594 30.965 199.26 30 197.5C29 197.833 28 198.167 27 198.5C28.101 196.208 27.268 194.708 24.5 194C25.9931 192.632 27.493 192.465 29 193.5C29.483 192.552 29.649 191.552 29.5 190.5C27.533 190.739 25.6995 190.406 24 189.5C23.5 190 23 190.5 22.5 191C22.9402 193.162 23.2735 195.329 23.5 197.5C22 199.167 20.5 200.833 19 202.5C16.7456 199.685 17.2456 197.518 20.5 196C19.1667 195 19.1667 194 20.5 193C18.5069 193.232 16.6736 193.065 15 192.5C12.6763 193.807 11.343 195.807 11 198.5C10.6827 196.699 10.016 196.366 9.00002 197.5C9.67442 195.079 10.5077 192.579 11.5 190C11.3333 188.833 11.1667 187.667 11 186.5C6.66622 186.667 5.83282 188.167 8.50002 191C7.45222 193.887 5.78552 196.387 3.50002 198.5C3.16672 197.667 2.83332 196.833 2.50002 196C3.94722 182.522 4.78062 169.022 5.00002 155.5C1.05382 172.191 -0.446176 189.191 0.500024 206.5C-1.76968 179.337 1.89702 153.003 11.5 127.5Z" fill="#1ADDEF"/>
<path fill-rule="evenodd" clip-rule="evenodd" d="M212.5 117.5C220.015 122.874 225.348 129.874 228.5 138.5C228.387 141.049 229.054 143.382 230.5 145.5C229.438 148.103 229.272 150.77 230 153.5C231.115 158.365 232.282 163.198 233.5 168C233.065 172.377 231.899 172.544 230 168.5C228.284 169.552 227.284 168.886 227 166.5C225.256 167.649 225.089 168.983 226.5 170.5C225.239 173.82 223.572 174.154 221.5 171.5C220.808 172.025 220.308 172.692 220 173.5C219.323 171.311 218.156 170.978 216.5 172.5C215.833 171.833 215.167 171.167 214.5 170.5C213.885 172.162 213.051 174.162 212 176.5C210.615 175.449 209.615 174.116 209 172.5C207.989 173.337 206.822 173.67 205.5 173.5C205.328 175.492 205.995 177.158 207.5 178.5C205.858 181.184 203.858 181.684 201.5 180C203.645 179.257 203.811 178.424 202 177.5C200.101 177.382 198.267 177.882 196.5 179C197.673 182.11 197.173 182.277 195 179.5C194.667 179.833 194.333 180.167 194 180.5C193.751 179.376 193.251 178.376 192.5 177.5C191.289 178.274 191.289 179.107 192.5 180C190.594 181.993 189.427 181.493 189 178.5C187.36 182.34 185.86 182.34 184.5 178.5C183.833 179.5 183.167 180.5 182.5 181.5C180.492 179.238 180.159 179.738 181.5 183C180 184.167 178.5 185.333 177 186.5C175.817 185.269 174.651 185.269 173.5 186.5C172.469 187.7 171.635 189.034 171 190.5C170.311 189.643 169.478 188.977 168.5 188.5C167.28 189.711 166.113 189.711 165 188.5C163.388 188.952 162.388 190.285 162 192.5C161.667 191.833 161.333 191.167 161 190.5C159.467 190.944 157.967 191.277 156.5 191.5C155.692 191.192 155.025 190.692 154.5 190C155.706 185.636 155.206 185.469 153 189.5C152.333 187.833 152.333 186.167 153 184.5C153.914 185.654 154.747 185.487 155.5 184C153.377 182.227 151.377 181.06 149.5 180.5C149.621 177.998 149.788 175.332 150 172.5C151.653 166.698 153.153 160.864 154.5 155C154.37 153.941 153.87 153.108 153 152.5C153.053 155.675 152.22 158.342 150.5 160.5C151.939 151.918 154.439 143.585 158 135.5C160.389 129.386 164.223 124.386 169.5 120.5C171.371 120.141 172.871 119.141 174 117.5C174.833 118.333 175.667 119.167 176.5 120C175.313 121.019 174.313 122.186 173.5 123.5C175.412 125.542 175.579 127.542 174 129.5C173.275 127.051 172.275 124.717 171 122.5C170.15 124.01 169.317 125.51 168.5 127C169.022 127.95 169.689 128.784 170.5 129.5C168.665 130.192 166.832 129.858 165 128.5C162.67 131.465 162.17 134.632 163.5 138C157.576 142.416 155.576 148.25 157.5 155.5C159.936 154.499 159.936 153.332 157.5 152C158.723 150.28 159.723 148.447 160.5 146.5C160.392 145.558 160.059 144.725 159.5 144C161.464 143.376 163.131 143.876 164.5 145.5C164.833 145 165.167 144.5 165.5 144C163.853 141.804 164.187 139.971 166.5 138.5C165.5 137.667 164.5 136.833 163.5 136C170.021 134.287 171.355 135.62 167.5 140C168.253 141.487 169.086 141.654 170 140.5C170.833 142.5 171.667 144.5 172.5 146.5C173.452 144.955 173.785 143.288 173.5 141.5C179.258 141.12 182.091 143.787 182 149.5C182.414 149.043 182.914 148.709 183.5 148.5C185.612 150.953 187.779 153.286 190 155.5C190.741 154.359 191.575 154.359 192.5 155.5C193.521 154.998 193.688 154.332 193 153.5C191.59 152.213 190.09 151.046 188.5 150C189.784 149.316 190.951 149.483 192 150.5C194.027 149.788 195.027 148.788 195 147.5C196 148.167 197 148.833 198 149.5C199.371 148.419 200.871 147.585 202.5 147C201.107 144.822 199.44 143.822 197.5 144C198.167 143.667 198.833 143.333 199.5 143C197.964 141.401 197.464 139.567 198 137.5C200.74 139.849 202.74 142.183 204 144.5C207.3 142.443 207.133 141.443 203.5 141.5C203.548 138.708 202.215 136.875 199.5 136C201.65 134.41 203.983 133.743 206.5 134C205.404 138.191 206.571 138.691 210 135.5C211 136.5 212 137.5 213 138.5C213.583 136.998 214.416 135.665 215.5 134.5C217.725 135.101 219.891 135.434 222 135.5C222.829 132.326 221.829 131.326 219 132.5C218.044 131.421 217.211 130.255 216.5 129C214.402 128.986 212.569 129.153 211 129.5C210.691 128.234 210.191 127.067 209.5 126C211.715 125.83 213.715 125.163 215.5 124C214.552 123.517 213.552 123.351 212.5 123.5C211.986 121.302 210.986 119.302 209.5 117.5C210.233 116.913 211.233 116.913 212.5 117.5Z" fill="#18E4F0"/>
<path fill-rule="evenodd" clip-rule="evenodd" d="M228.5 138.5C230.516 142.991 232.349 147.658 234 152.5C234.907 159.278 236.24 165.945 238 172.5C242.563 185.233 246.73 197.899 250.5 210.5C247.894 206.502 245.727 202.169 244 197.5C243.322 199.598 243.489 201.598 244.5 203.5C243.942 205.564 242.775 207.23 241 208.5C237.706 205.604 234.206 202.937 230.5 200.5C229.552 203.715 228.219 204.048 226.5 201.5C223.347 204.238 220.514 203.905 218 200.5C217.586 200.957 217.086 201.291 216.5 201.5C215.667 200.5 214.833 199.5 214 198.5C212.587 200.414 210.753 201.747 208.5 202.5C206.93 202.306 205.43 202.306 204 202.5C202.926 201.382 201.76 200.382 200.5 199.5C201.476 197.877 200.976 196.543 199 195.5C195.662 197.634 192.662 196.967 190 193.5C188.322 194.682 188.488 195.848 190.5 197C190.333 197.5 190.167 198 190 198.5C188.184 199.329 186.351 200.163 184.5 201C185.328 201.915 186.328 202.581 187.5 203C186.695 204.113 186.028 205.279 185.5 206.5C185.238 209.789 184.238 213.122 182.5 216.5C180.617 214.864 178.617 214.531 176.5 215.5C175.737 216.719 174.737 217.719 173.5 218.5C174.246 219.736 174.579 221.07 174.5 222.5C173.5 222.5 172.5 222.5 171.5 222.5C171.5 223.5 171.5 224.5 171.5 225.5C169.5 225.5 167.5 225.5 165.5 225.5C165.5 226.833 165.5 228.167 165.5 229.5C164.07 229.421 162.736 229.754 161.5 230.5C158.41 228.611 155.243 226.945 152 225.5C151.667 225.833 151.333 226.167 151 226.5C151.077 225.262 150.911 224.262 150.5 223.5C149.833 224.167 149.167 224.833 148.5 225.5C148.094 224.443 148.094 223.109 148.5 221.5C146.248 222.333 144.081 222.333 142 221.5C141.25 222.126 140.416 222.626 139.5 223C143.327 224.58 143.161 226.08 139 227.5C137.748 225.999 136.748 224.332 136 222.5C135.444 224.595 134.944 224.762 134.5 223C136.116 217.934 137.283 212.768 138 207.5C139.333 206.833 140.333 205.833 141 204.5C141.547 198.714 143.214 193.381 146 188.5C146.808 186.421 146.641 184.421 145.5 182.5C145.13 185.502 143.797 187.835 141.5 189.5C144.395 179.796 147.395 170.129 150.5 160.5C152.22 158.342 153.053 155.675 153 152.5C153.87 153.108 154.37 153.941 154.5 155C153.153 160.864 151.653 166.698 150 172.5C149.788 175.332 149.621 177.998 149.5 180.5C151.377 181.06 153.377 182.227 155.5 184C154.747 185.487 153.914 185.654 153 184.5C152.333 186.167 152.333 187.833 153 189.5C155.206 185.469 155.706 185.636 154.5 190C155.025 190.692 155.692 191.192 156.5 191.5C157.967 191.277 159.467 190.944 161 190.5C161.333 191.167 161.667 191.833 162 192.5C162.388 190.285 163.388 188.952 165 188.5C166.113 189.711 167.28 189.711 168.5 188.5C169.478 188.977 170.311 189.643 171 190.5C171.635 189.034 172.469 187.7 173.5 186.5C174.651 185.269 175.817 185.269 177 186.5C178.5 185.333 180 184.167 181.5 183C180.159 179.738 180.492 179.238 182.5 181.5C183.167 180.5 183.833 179.5 184.5 178.5C185.86 182.34 187.36 182.34 189 178.5C189.427 181.493 190.594 181.993 192.5 180C191.289 179.107 191.289 178.274 192.5 177.5C193.251 178.376 193.751 179.376 194 180.5C194.333 180.167 194.667 179.833 195 179.5C197.173 182.277 197.673 182.11 196.5 179C198.267 177.882 200.101 177.382 202 177.5C203.811 178.424 203.645 179.257 201.5 180C203.858 181.684 205.858 181.184 207.5 178.5C205.995 177.158 205.328 175.492 205.5 173.5C206.822 173.67 207.989 173.337 209 172.5C209.615 174.116 210.615 175.449 212 176.5C213.051 174.162 213.885 172.162 214.5 170.5C215.167 171.167 215.833 171.833 216.5 172.5C218.156 170.978 219.323 171.311 220 173.5C220.308 172.692 220.808 172.025 221.5 171.5C223.572 174.154 225.239 173.82 226.5 170.5C225.089 168.983 225.256 167.649 227 166.5C227.284 168.886 228.284 169.552 230 168.5C231.899 172.544 233.065 172.377 233.5 168C232.282 163.198 231.115 158.365 230 153.5C229.272 150.77 229.438 148.103 230.5 145.5C229.054 143.382 228.387 141.049 228.5 138.5Z" fill="#1ADDEE"/>
<path fill-rule="evenodd" clip-rule="evenodd" d="M57.5 193.5C57.565 202.618 58.565 211.618 60.5 220.5C59.883 220.389 59.383 220.056 59 219.5C58.667 217.167 58.333 214.833 58 212.5C57.062 218.816 57.896 224.816 60.5 230.5C59.926 232.059 59.26 233.559 58.5 235C57.258 235.311 56.258 234.811 55.5 233.5C55.167 233.833 54.833 234.167 54.5 234.5C55.833 236.5 55.833 238.5 54.5 240.5C52.366 240.902 50.366 240.902 48.5 240.5C47.41 239.273 46.076 238.44 44.5 238C47.089 236.803 49.756 235.803 52.5 235C50.951 233.786 49.785 232.286 49 230.5C47.989 231.337 46.822 231.67 45.5 231.5C45.391 234.534 44.057 235.534 41.5 234.5C42.311 233.784 42.978 232.95 43.5 232C43.15 230.743 42.483 230.409 41.5 231C40.726 233.44 39.06 234.773 36.5 235C37.833 235.333 39.167 235.667 40.5 236C40.043 236.414 39.709 236.914 39.5 237.5C38.033 237.723 36.533 238.056 35 238.5C31.049 234.592 31.882 232.259 37.5 231.5C36.372 230.738 35.205 230.071 34 229.5C33.632 230.91 32.799 231.91 31.5 232.5C30.094 231.573 28.594 230.573 27 229.5C25.3333 232.167 23.6667 232.167 22 229.5C20.7753 233.18 19.942 232.847 19.5 228.5C18.1667 228.5 16.8333 228.5 15.5 228.5C15.7163 230.681 14.883 232.347 13 233.5C12.3147 230.943 10.8147 229.109 8.50002 228C10.9011 227.195 10.7344 226.362 8.00002 225.5C7.66672 226.5 7.33332 227.5 7.00002 228.5C5.19442 222.944 3.86112 217.278 3.00002 211.5C2.40652 217.856 2.57312 224.189 3.50002 230.5C1.62642 222.757 0.62642 214.757 0.50002 206.5C-0.44618 189.191 1.05382 172.191 5.00002 155.5C4.78062 169.022 3.94722 182.522 2.50002 196C2.83332 196.833 3.16672 197.667 3.50002 198.5C5.78552 196.387 7.45222 193.887 8.50002 191C5.83282 188.167 6.66622 186.667 11 186.5C11.1667 187.667 11.3333 188.833 11.5 190C10.5077 192.579 9.67442 195.079 9.00002 197.5C10.016 196.366 10.6827 196.699 11 198.5C11.343 195.807 12.6763 193.807 15 192.5C16.6736 193.065 18.5069 193.232 20.5 193C19.1667 194 19.1667 195 20.5 196C17.2456 197.518 16.7456 199.685 19 202.5C20.5 200.833 22 199.167 23.5 197.5C23.2735 195.329 22.9402 193.162 22.5 191C23 190.5 23.5 190 24 189.5C25.6995 190.406 27.533 190.739 29.5 190.5C29.649 191.552 29.483 192.552 29 193.5C27.493 192.465 25.9931 192.632 24.5 194C27.268 194.708 28.101 196.208 27 198.5C28 198.167 29 197.833 30 197.5C30.965 199.26 32.132 199.594 33.5 198.5C31.419 196.601 32.086 195.768 35.5 196C35.167 196.333 34.833 196.667 34.5 197C36.628 198.667 37.961 200.834 38.5 203.5C40.276 201.553 42.276 201.22 44.5 202.5C45.694 204.891 46.694 207.224 47.5 209.5C47.92 207.674 47.92 205.674 47.5 203.5C48.833 203.5 50.167 203.5 51.5 203.5C53.107 205.529 53.94 208.529 54 212.5C54.828 208.129 54.661 203.795 53.5 199.5C52.158 202.321 51.492 202.154 51.5 199C52.427 197.877 53.26 196.377 54 194.5C54.169 187.144 54.669 179.811 55.5 172.5C56.167 179.655 56.833 186.655 57.5 193.5Z" fill="#18D7EE"/>
<path fill-rule="evenodd" clip-rule="evenodd" d="M380.5 232.5C379.532 238.701 378.198 244.701 376.5 250.5C376.875 247.603 376.375 244.937 375 242.5C374.226 246.147 373.559 249.814 373 253.5C371.035 256.799 368.368 259.465 365 261.5C364.333 262.833 363.667 264.167 363 265.5C361.282 263.798 361.115 261.965 362.5 260C361.328 259.581 360.328 258.915 359.5 258C360.215 254.521 362.215 254.021 365.5 256.5C368.313 253.808 368.146 252.808 365 253.5C362.135 252.224 359.301 251.89 356.5 252.5C357.55 254.102 356.883 254.935 354.5 255C356.525 256.194 356.859 257.694 355.5 259.5C351.856 260.58 348.19 261.08 344.5 261C346.167 259.333 347.833 257.667 349.5 256C347.875 255.147 347.542 254.147 348.5 253C346.633 252.289 345.133 252.789 344 254.5C343.667 254.167 343.333 253.833 343 253.5C342.316 254.784 342.483 255.951 343.5 257C338.098 258.179 337.432 257.179 341.5 254C340.874 253.25 340.374 252.416 340 251.5C338.129 252.997 337.129 254.997 337 257.5C333.979 253.401 332.813 254.067 333.5 259.5C331.61 259.703 330.11 259.037 329 257.5C326.904 258.715 327.071 259.549 329.5 260C327.5 260.667 325.5 261.333 323.5 262C322.789 263.255 321.956 264.421 321 265.5C317.793 262.85 317.293 263.016 319.5 266C317.324 268.236 315.991 267.736 315.5 264.5C317.836 262.927 317.836 261.594 315.5 260.5C314.808 262.415 313.475 264.415 311.5 266.5C310.5 266.167 309.833 265.5 309.5 264.5C311.09 262.32 312.424 259.987 313.5 257.5C315.263 258.954 316.597 258.62 317.5 256.5C316.48 254.568 316.313 252.568 317 250.5C319.899 244.071 322.399 237.405 324.5 230.5C324.167 229.833 323.833 229.167 323.5 228.5C322.943 230.332 321.943 231.665 320.5 232.5C322.642 226.746 323.975 220.746 324.5 214.5C324.833 214.5 325.167 214.5 325.5 214.5C326.724 208.311 327.724 201.978 328.5 195.5C326.954 187.232 326.454 178.899 327 170.5C327.567 173.168 328.067 175.834 328.5 178.5C329.549 187.473 329.716 196.473 329 205.5C327.846 213.231 326.846 220.898 326 228.5C326.414 228.957 326.914 229.291 327.5 229.5C328.08 227.363 329.08 225.53 330.5 224C330.06 221.838 329.727 219.671 329.5 217.5C329.977 216.522 330.643 215.689 331.5 215C330.137 212.871 330.471 212.371 332.5 213.5C333.731 212.349 333.731 211.183 332.5 210C333 209.5 333.5 209 334 208.5C336.76 210.239 338.426 212.239 339 214.5C341.355 214.041 343.521 213.208 345.5 212C344.207 211.51 342.873 211.343 341.5 211.5C341.351 210.448 341.517 209.448 342 208.5C343.84 209.833 344.34 209.666 343.5 208C346.096 206.203 345.763 204.869 342.5 204C344.301 203.683 344.634 203.016 343.5 202C344.249 200.266 344.749 198.433 345 196.5C345.333 196.833 345.667 197.167 346 197.5C349.177 195.217 352.677 194.383 356.5 195C357.833 196 357.833 197 356.5 198C355.034 198.635 353.7 199.469 352.5 200.5C351.109 199.355 349.776 199.355 348.5 200.5C350.396 201.466 352.396 201.799 354.5 201.5C354.741 204.999 353.908 205.332 352 202.5C350.256 203.649 350.089 204.983 351.5 206.5C349.69 208.707 349.357 211.041 350.5 213.5C350.92 209.578 352.42 209.578 355 213.5C355.49 212.207 355.657 210.873 355.5 209.5C357.655 209.372 359.655 209.872 361.5 211C360.692 211.308 360.025 211.808 359.5 212.5C360.603 212.998 361.603 213.331 362.5 213.5C360.997 215.422 358.997 216.588 356.5 217C357.711 218.113 357.711 219.28 356.5 220.5C357.325 221.386 358.325 221.719 359.5 221.5C359.238 220.022 359.571 218.689 360.5 217.5C361.192 218.025 361.692 218.692 362 219.5C362.49 218.207 362.657 216.873 362.5 215.5C363.822 215.33 364.989 215.663 366 216.5C366.725 214.842 367.892 214.342 369.5 215C370.313 216.803 371.48 218.303 373 219.5C373.5 219.333 374 219.167 374.5 219C373.269 217.817 373.269 216.651 374.5 215.5C375.48 216.981 376.647 218.315 378 219.5C379.811 213.043 380.645 206.376 380.5 199.5C380.219 194.435 380.552 189.435 381.5 184.5C379.696 176.933 379.196 169.266 380 161.5C380.16 165.287 380.826 168.954 382 172.5C382.962 192.579 382.462 212.579 380.5 232.5Z" fill="#17D0EC"/>
<path fill-rule="evenodd" clip-rule="evenodd" d="M380.5 199.5C380.645 206.376 379.811 213.043 378 219.5C376.647 218.315 375.48 216.981 374.5 215.5C373.269 216.651 373.269 217.817 374.5 219C374 219.167 373.5 219.333 373 219.5C371.48 218.303 370.313 216.803 369.5 215C367.892 214.342 366.725 214.842 366 216.5C364.989 215.663 363.822 215.33 362.5 215.5C362.657 216.873 362.49 218.207 362 219.5C361.692 218.692 361.192 218.025 360.5 217.5C359.571 218.689 359.238 220.022 359.5 221.5C358.325 221.719 357.325 221.386 356.5 220.5C357.711 219.28 357.711 218.113 356.5 217C358.997 216.588 360.997 215.422 362.5 213.5C361.603 213.331 360.603 212.998 359.5 212.5C360.025 211.808 360.692 211.308 361.5 211C359.655 209.872 357.655 209.372 355.5 209.5C355.657 210.873 355.49 212.207 355 213.5C352.42 209.578 350.92 209.578 350.5 213.5C349.357 211.041 349.69 208.707 351.5 206.5C350.089 204.983 350.256 203.649 352 202.5C353.908 205.332 354.741 204.999 354.5 201.5C352.396 201.799 350.396 201.466 348.5 200.5C349.776 199.355 351.109 199.355 352.5 200.5C353.7 199.469 355.034 198.635 356.5 198C357.833 197 357.833 196 356.5 195C352.677 194.383 349.177 195.217 346 197.5C345.667 197.167 345.333 196.833 345 196.5C344.749 198.433 344.249 200.266 343.5 202C344.634 203.016 344.301 203.683 342.5 204C345.763 204.869 346.096 206.203 343.5 208C344.34 209.666 343.84 209.833 342 208.5C341.517 209.448 341.351 210.448 341.5 211.5C342.873 211.343 344.207 211.51 345.5 212C343.521 213.208 341.355 214.041 339 214.5C338.426 212.239 336.76 210.239 334 208.5C333.5 209 333 209.5 332.5 210C333.731 211.183 333.731 212.349 332.5 213.5C330.471 212.371 330.137 212.871 331.5 215C330.643 215.689 329.977 216.522 329.5 217.5C329.727 219.671 330.06 221.838 330.5 224C329.08 225.53 328.08 227.363 327.5 229.5C326.914 229.291 326.414 228.957 326 228.5C326.846 220.898 327.846 213.231 329 205.5C329.716 196.473 329.549 187.473 328.5 178.5C330.308 186.44 331.141 194.773 331 203.5C331.408 196.899 332.575 190.565 334.5 184.5C335.167 184.167 335.833 183.833 336.5 183.5C338.872 186.121 339.538 185.788 338.5 182.5C339.242 181.713 340.075 181.047 341 180.5C342.267 182.907 342.767 185.24 342.5 187.5C343.648 185.65 344.981 184.983 346.5 185.5C345.737 184.281 344.737 183.281 343.5 182.5C345.787 181.785 347.954 181.451 350 181.5C350.215 184.126 350.048 186.459 349.5 188.5C350.718 188.109 351.552 188.776 352 190.5C352.333 190.167 352.667 189.833 353 189.5C355.186 184.578 354.353 180.578 350.5 177.5C349.369 175.926 349.202 174.259 350 172.5C350.637 175.328 352.304 177.328 355 178.5C354.914 182.047 356.08 185.047 358.5 187.5C359.5 186.5 360.5 185.5 361.5 184.5C359.669 182.689 358.502 180.689 358 178.5C361.54 180.515 365.207 182.181 369 183.5C369.945 183.095 370.612 182.428 371 181.5C372 182.833 373 182.833 374 181.5C374.167 181.833 374.333 182.167 374.5 182.5C373.5 183.167 372.5 183.833 371.5 184.5C374.806 185.604 377.139 187.771 378.5 191C375.509 193.141 374.342 195.975 375 199.5C376.527 197.779 377.527 195.779 378 193.5C379.019 195.502 379.852 197.502 380.5 199.5Z" fill="#16D3ED"/>
<path fill-rule="evenodd" clip-rule="evenodd" d="M324.5 172.5C326.818 186.302 327.151 200.302 325.5 214.5C325.167 214.5 324.833 214.5 324.5 214.5C324.5 200.5 324.5 186.5 324.5 172.5Z" fill="#CBF4FA"/>
<path fill-rule="evenodd" clip-rule="evenodd" d="M244.5 203.5C245.795 209.075 247.462 214.575 249.5 220C248.978 220.561 248.645 221.228 248.5 222C249.712 222.254 250.878 223.087 252 224.5C254.027 228.207 254.527 232.041 253.5 236C255.112 237.482 256.112 239.315 256.5 241.5C254.833 241.5 253.167 241.5 251.5 241.5C251.5 240.5 251.5 239.5 251.5 238.5C250.178 238.33 249.011 238.663 248 239.5C247.308 238.975 246.808 238.308 246.5 237.5C249.102 236.565 251.102 234.898 252.5 232.5C250.444 229.574 249.11 229.907 248.5 233.5C247.009 234.244 245.509 234.91 244 235.5C242.372 234.181 242.539 232.848 244.5 231.5C243.5 230.833 242.5 230.167 241.5 229.5C242.59 228.391 242.59 227.391 241.5 226.5C240.205 227.098 238.872 227.598 237.5 228C241.182 230.346 241.348 232.846 238 235.5C237.25 234.874 236.416 234.374 235.5 234C236.833 233.333 236.833 232.667 235.5 232C233.269 231.837 231.935 233.003 231.5 235.5C233.856 236.654 234.023 237.987 232 239.5C229.665 237.679 227.165 236.012 224.5 234.5C223.424 232.013 222.09 229.68 220.5 227.5C219.167 228.5 217.833 229.5 216.5 230.5C215.808 229.975 215.308 229.308 215 228.5C213.667 231.167 212.333 231.167 211 228.5C210 229.5 209 230.5 208 231.5C208.077 232.738 207.911 233.738 207.5 234.5C205.91 232.32 204.576 229.987 203.5 227.5C202.526 229.743 202.192 232.076 202.5 234.5C199.211 223.285 195.878 211.952 192.5 200.5C191.667 201.5 190.833 202.5 190 203.5C188.369 210.698 186.535 217.698 184.5 224.5C184.816 218.232 186.149 212.232 188.5 206.5C188.333 205.833 188.167 205.167 188 204.5C187.583 205.756 186.75 206.423 185.5 206.5C186.028 205.279 186.695 204.113 187.5 203C186.328 202.581 185.328 201.915 184.5 201C186.351 200.163 188.184 199.329 190 198.5C190.167 198 190.333 197.5 190.5 197C188.488 195.848 188.322 194.682 190 193.5C192.662 196.967 195.662 197.634 199 195.5C200.976 196.543 201.476 197.877 200.5 199.5C201.76 200.382 202.926 201.382 204 202.5C205.43 202.306 206.93 202.306 208.5 202.5C210.753 201.747 212.587 200.414 214 198.5C214.833 199.5 215.667 200.5 216.5 201.5C217.086 201.291 217.586 200.957 218 200.5C220.514 203.905 223.347 204.238 226.5 201.5C228.219 204.048 229.552 203.715 230.5 200.5C234.206 202.937 237.706 205.604 241 208.5C242.775 207.23 243.942 205.564 244.5 203.5Z" fill="#19D5ED"/>
<path fill-rule="evenodd" clip-rule="evenodd" d="M250.5 210.5C253.837 219.857 257.17 229.19 260.5 238.5C258.415 235.881 256.915 232.881 256 229.5C255.333 231.833 255.333 234.167 256 236.5C257.667 241.167 259.333 245.833 261 250.5C261.333 250.167 261.667 249.833 262 249.5C263.076 252.648 264.409 255.648 266 258.5C266.699 260.074 266.365 261.407 265 262.5C263.333 261.5 262 260.167 261 258.5C259.817 259.731 258.651 259.731 257.5 258.5C260.025 256.451 259.525 255.118 256 254.5C254.333 255.5 252.667 256.5 251 257.5C241.307 255.205 241.14 256.039 250.5 260C249.421 260.956 248.255 261.789 247 262.5C244.42 258.578 242.92 258.578 242.5 262.5C241.41 261.273 240.076 260.44 238.5 260C239.747 258.506 239.747 257.006 238.5 255.5C237.692 255.808 237.025 256.308 236.5 257C237.711 257.893 237.711 258.726 236.5 259.5C236.141 256.133 234.641 253.467 232 251.5C231.5 251.667 231 251.833 230.5 252C234.412 255.552 234.245 258.719 230 261.5C228.941 261.37 228.108 260.87 227.5 260C228.672 259.581 229.672 258.915 230.5 258C227.568 256.886 224.734 256.386 222 256.5C221.333 257.167 220.667 257.833 220 258.5C217.798 257.598 215.632 256.598 213.5 255.5C212.586 253.336 211.419 251.336 210 249.5C209.944 246.22 209.111 243.22 207.5 240.5C207.167 241.333 206.833 242.167 206.5 243C207.979 246.007 208.646 249.174 208.5 252.5C206.94 250.844 205.94 248.844 205.5 246.5C205.966 242.018 204.966 238.018 202.5 234.5C202.192 232.076 202.526 229.743 203.5 227.5C204.576 229.987 205.91 232.32 207.5 234.5C207.911 233.738 208.077 232.738 208 231.5C209 230.5 210 229.5 211 228.5C212.333 231.167 213.667 231.167 215 228.5C215.308 229.308 215.808 229.975 216.5 230.5C217.833 229.5 219.167 228.5 220.5 227.5C222.09 229.68 223.424 232.013 224.5 234.5C227.165 236.012 229.665 237.679 232 239.5C234.023 237.987 233.856 236.654 231.5 235.5C231.935 233.003 233.269 231.837 235.5 232C236.833 232.667 236.833 233.333 235.5 234C236.416 234.374 237.25 234.874 238 235.5C241.348 232.846 241.182 230.346 237.5 228C238.872 227.598 240.205 227.098 241.5 226.5C242.59 227.391 242.59 228.391 241.5 229.5C242.5 230.167 243.5 230.833 244.5 231.5C242.539 232.848 242.372 234.181 244 235.5C245.509 234.91 247.009 234.244 248.5 233.5C249.11 229.907 250.444 229.574 252.5 232.5C251.102 234.898 249.102 236.565 246.5 237.5C246.808 238.308 247.308 238.975 248 239.5C249.011 238.663 250.178 238.33 251.5 238.5C251.5 239.5 251.5 240.5 251.5 241.5C253.167 241.5 254.833 241.5 256.5 241.5C256.112 239.315 255.112 237.482 253.5 236C254.527 232.041 254.027 228.207 252 224.5C250.878 223.087 249.712 222.254 248.5 222C248.645 221.228 248.978 220.561 249.5 220C247.462 214.575 245.795 209.075 244.5 203.5C243.489 201.598 243.322 199.598 244 197.5C245.727 202.169 247.894 206.502 250.5 210.5Z" fill="#1AD0EC"/>
<path fill-rule="evenodd" clip-rule="evenodd" d="M182.5 216.5C183.021 220.719 181.854 224.386 179 227.5C178.503 229.81 178.337 232.143 178.5 234.5C177.448 234.351 176.448 234.517 175.5 235C176.139 238.016 176.139 240.85 175.5 243.5C172.957 248.301 171.124 253.301 170 258.5C169.612 259.428 168.945 260.095 168 260.5C167.807 259.195 166.807 257.861 165 256.5C164.667 257.167 164.333 257.833 164 258.5C161.942 256.932 159.775 255.598 157.5 254.5C156.833 254.667 156.167 254.833 155.5 255C157.909 256.201 159.909 257.867 161.5 260C160.285 262.096 159.451 261.929 159 259.5C157.667 260.167 156.333 260.833 155 261.5C153.534 259.675 151.701 259.175 149.5 260C152.33 262.644 151.996 263.478 148.5 262.5C147.14 264.981 146.14 264.648 145.5 261.5C148.089 259.185 147.589 257.518 144 256.5C142.236 259.138 140.902 258.804 140 255.5C139.033 256.678 138.533 258.011 138.5 259.5C137.749 258.624 137.249 257.624 137 256.5C133.243 257.982 132.743 257.316 135.5 254.5C136.689 253.571 138.022 253.238 139.5 253.5C139.5 252.167 139.5 250.833 139.5 249.5C137.418 249.528 135.584 248.861 134 247.5C132.676 249.5 131.009 251.167 129 252.5C128.586 252.043 128.086 251.709 127.5 251.5C126.167 252.5 124.833 253.5 123.5 254.5C123.167 253.5 122.833 252.5 122.5 251.5C124.14 247.283 124.973 242.95 125 238.5C124.722 239.416 124.222 240.082 123.5 240.5C130.2 223.749 136.2 206.749 141.5 189.5C143.797 187.835 145.13 185.502 145.5 182.5C146.641 184.421 146.808 186.421 146 188.5C143.214 193.381 141.547 198.714 141 204.5C140.333 205.833 139.333 206.833 138 207.5C137.283 212.768 136.116 217.934 134.5 223C134.944 224.762 135.444 224.595 136 222.5C136.748 224.332 137.748 225.999 139 227.5C143.161 226.08 143.327 224.58 139.5 223C140.416 222.626 141.25 222.126 142 221.5C144.081 222.333 146.248 222.333 148.5 221.5C148.094 223.109 148.094 224.443 148.5 225.5C149.167 224.833 149.833 224.167 150.5 223.5C150.911 224.262 151.077 225.262 151 226.5C151.333 226.167 151.667 225.833 152 225.5C155.243 226.945 158.41 228.611 161.5 230.5C162.736 229.754 164.07 229.421 165.5 229.5C165.5 228.167 165.5 226.833 165.5 225.5C167.5 225.5 169.5 225.5 171.5 225.5C171.5 224.5 171.5 223.5 171.5 222.5C172.5 222.5 173.5 222.5 174.5 222.5C174.579 221.07 174.246 219.736 173.5 218.5C174.737 217.719 175.737 216.719 176.5 215.5C178.617 214.531 180.617 214.864 182.5 216.5Z" fill="#1AD7ED"/>
<path fill-rule="evenodd" clip-rule="evenodd" d="M60.5 220.5C64.61 236.725 70.944 252.058 79.5 266.5C78.624 266.369 77.957 266.702 77.5 267.5C78.648 270.289 79.981 272.956 81.5 275.5C80.379 278.047 78.712 279.047 76.5 278.5C77.313 277.186 78.313 276.019 79.5 275C76.79 273.245 75.123 270.745 74.5 267.5C72.837 266.125 71.503 266.458 70.5 268.5C69.842 266.563 69.509 264.73 69.5 263C66.508 262.98 65.508 264.313 66.5 267C66.387 268.28 65.72 269.113 64.5 269.5C62.522 267.469 62.522 265.803 64.5 264.5C64.167 264.167 63.833 263.833 63.5 263.5C61.955 265.395 60.455 267.395 59 269.5C58.51 268.207 58.343 266.873 58.5 265.5C55.5 265.167 54.167 266.5 54.5 269.5C50.877 269.351 50.543 268.184 53.5 266C50.956 262.447 49.289 262.947 48.5 267.5C47.186 266.687 46.019 265.687 45 264.5C44.223 266.701 43.056 266.701 41.5 264.5C42.263 263.281 43.263 262.281 44.5 261.5C42.994 260.253 41.494 260.253 40 261.5C39.781 262.938 39.281 264.271 38.5 265.5C37.182 263.249 35.516 261.249 33.5 259.5C32.575 260.641 31.741 260.641 31 259.5C29.888 262.303 28.054 263.303 25.5 262.5C26.5 261.667 27.5 260.833 28.5 260C26.336 259.63 24.3362 258.796 22.5 257.5C21.8076 258.025 21.3076 258.692 21 259.5C20.1077 255.827 18.6077 255.66 16.5 259C21.6399 261.606 21.6399 264.106 16.5 266.5C15.4246 264.098 14.2579 261.764 13 259.5C13.3676 263.133 13.8676 266.8 14.5 270.5C11.2759 262.303 8.10922 253.969 5.00002 245.5C4.38932 240.504 3.88932 235.504 3.50002 230.5C2.57312 224.189 2.40652 217.856 3.00002 211.5C3.86112 217.278 5.19442 222.944 7.00002 228.5C7.33332 227.5 7.66672 226.5 8.00002 225.5C10.7344 226.362 10.9011 227.195 8.50002 228C10.8147 229.109 12.3147 230.943 13 233.5C14.883 232.347 15.7163 230.681 15.5 228.5C16.8333 228.5 18.1667 228.5 19.5 228.5C19.942 232.847 20.7753 233.18 22 229.5C23.6667 232.167 25.3333 232.167 27 229.5C28.594 230.573 30.094 231.573 31.5 232.5C32.799 231.91 33.632 230.91 34 229.5C35.205 230.071 36.372 230.738 37.5 231.5C31.882 232.259 31.049 234.592 35 238.5C36.533 238.056 38.033 237.723 39.5 237.5C39.709 236.914 40.043 236.414 40.5 236C39.167 235.667 37.833 235.333 36.5 235C39.06 234.773 40.726 233.44 41.5 231C42.483 230.409 43.15 230.743 43.5 232C42.978 232.95 42.311 233.784 41.5 234.5C44.057 235.534 45.391 234.534 45.5 231.5C46.822 231.67 47.989 231.337 49 230.5C49.785 232.286 50.951 233.786 52.5 235C49.756 235.803 47.089 236.803 44.5 238C46.076 238.44 47.41 239.273 48.5 240.5C50.366 240.902 52.366 240.902 54.5 240.5C55.833 238.5 55.833 236.5 54.5 234.5C54.833 234.167 55.167 233.833 55.5 233.5C56.258 234.811 57.258 235.311 58.5 235C59.26 233.559 59.926 232.059 60.5 230.5C57.896 224.816 57.062 218.816 58 212.5C58.333 214.833 58.667 217.167 59 219.5C59.383 220.056 59.883 220.389 60.5 220.5Z" fill="#1AD0EC"/>
<path fill-rule="evenodd" clip-rule="evenodd" d="M202.5 234.5C204.966 238.018 205.966 242.018 205.5 246.5C204.508 242.596 203.508 238.596 202.5 234.5Z" fill="#91E5F4"/>
<path fill-rule="evenodd" clip-rule="evenodd" d="M376.5 250.5C371.693 269.957 363.693 287.957 352.5 304.5C352.719 303.325 352.386 302.325 351.5 301.5C348.023 304.481 345.523 308.148 344 312.5C342.202 314.972 339.868 316.639 337 317.5C337.266 320.901 335.766 322.567 332.5 322.5C332.67 323.822 332.337 324.989 331.5 326C329.5 326.667 327.5 326.667 325.5 326C324.495 324.493 323.162 323.327 321.5 322.5C322 322.167 322.5 321.833 323 321.5C327.239 324.863 330.073 324.029 331.5 319C330.338 318.173 329.171 317.34 328 316.5C327.5 316.667 327 316.833 326.5 317C327.167 318.333 328.167 319.333 329.5 320C328.234 320.309 327.067 320.809 326 321.5C323.17 318.166 320.67 318.666 318.5 323C319.128 325.526 320.461 326.359 322.5 325.5C322.833 326 323.167 326.5 323.5 327C322.66 328.171 321.827 329.338 321 330.5C320.692 329.692 320.192 329.025 319.5 328.5C318.186 329.313 317.019 330.313 316 331.5C312.697 329.603 312.864 327.936 316.5 326.5C314.718 321.678 312.384 321.344 309.5 325.5C308.5 325.167 307.833 324.5 307.5 323.5C310.726 322.123 311.059 320.457 308.5 318.5C307.757 319.908 306.923 321.241 306 322.5C305.383 321.551 305.549 320.718 306.5 320C304.481 319.55 302.648 318.717 301 317.5C299.155 320.59 296.822 323.257 294 325.5C292.89 321.721 291.39 321.554 289.5 325C289.057 326.518 289.724 327.685 291.5 328.5C289.264 330.562 286.597 331.395 283.5 331C284.614 329.43 285.947 328.097 287.5 327C285.319 325.652 283.652 323.818 282.5 321.5C281.914 321.709 281.414 322.043 281 322.5C280 320.833 279 319.167 278 317.5C277.71 319.044 277.044 320.377 276 321.5C273.816 322.108 271.816 321.441 270 319.5C269.667 320.5 269.333 321.5 269 322.5C267.846 321.257 266.512 320.257 265 319.5C264.405 318.101 264.572 316.768 265.5 315.5C263.348 313.188 261.348 313.522 259.5 316.5C262.279 317.673 262.946 319.507 261.5 322C260.5 322.667 259.5 322.667 258.5 322C258.833 321.667 259.167 321.333 259.5 321C258.782 319.013 257.782 317.179 256.5 315.5C255.8 318.015 254.467 318.682 252.5 317.5C251.16 318.867 249.827 320.2 248.5 321.5C245.482 320.145 244.149 317.812 244.5 314.5C243.448 314.649 242.448 314.483 241.5 314C239.85 311.187 237.85 308.687 235.5 306.5C234.708 307.7 234.708 309.033 235.5 310.5C223.443 292.697 214.443 273.364 208.5 252.5C208.646 249.174 207.979 246.007 206.5 243C206.833 242.167 207.167 241.333 207.5 240.5C209.111 243.22 209.944 246.22 210 249.5C211.419 251.336 212.586 253.336 213.5 255.5C215.632 256.598 217.798 257.598 220 258.5C220.667 257.833 221.333 257.167 222 256.5C224.734 256.386 227.568 256.886 230.5 258C229.672 258.915 228.672 259.581 227.5 260C228.108 260.87 228.941 261.37 230 261.5C234.245 258.719 234.412 255.552 230.5 252C231 251.833 231.5 251.667 232 251.5C234.641 253.467 236.141 256.133 236.5 259.5C237.711 258.726 237.711 257.893 236.5 257C237.025 256.308 237.692 255.808 238.5 255.5C239.747 257.006 239.747 258.506 238.5 260C240.076 260.44 241.41 261.273 242.5 262.5C242.92 258.578 244.42 258.578 247 262.5C248.255 261.789 249.421 260.956 250.5 260C241.14 256.039 241.307 255.205 251 257.5C252.667 256.5 254.333 255.5 256 254.5C259.525 255.118 260.025 256.451 257.5 258.5C258.651 259.731 259.817 259.731 261 258.5C262 260.167 263.333 261.5 265 262.5C266.365 261.407 266.699 260.074 266 258.5C264.409 255.648 263.076 252.648 262 249.5C261.667 249.833 261.333 250.167 261 250.5C259.333 245.833 257.667 241.167 256 236.5C255.333 234.167 255.333 231.833 256 229.5C256.915 232.881 258.415 235.881 260.5 238.5C266.607 253.335 273.94 267.501 282.5 281C285.833 283 289.167 283 292.5 281C297.415 276.756 301.581 271.923 305 266.5C311.03 255.449 316.196 244.116 320.5 232.5C321.943 231.665 322.943 230.332 323.5 228.5C323.833 229.167 324.167 229.833 324.5 230.5C322.399 237.405 319.899 244.071 317 250.5C316.313 252.568 316.48 254.568 317.5 256.5C316.597 258.62 315.263 258.954 313.5 257.5C312.424 259.987 311.09 262.32 309.5 264.5C309.833 265.5 310.5 266.167 311.5 266.5C313.475 264.415 314.808 262.415 315.5 260.5C317.836 261.594 317.836 262.927 315.5 264.5C315.991 267.736 317.324 268.236 319.5 266C317.293 263.016 317.793 262.85 321 265.5C321.956 264.421 322.789 263.255 323.5 262C325.5 261.333 327.5 260.667 329.5 260C327.071 259.549 326.904 258.715 329 257.5C330.11 259.037 331.61 259.703 333.5 259.5C332.813 254.067 333.979 253.401 337 257.5C337.129 254.997 338.129 252.997 340 251.5C340.374 252.416 340.874 253.25 341.5 254C337.432 257.179 338.098 258.179 343.5 257C342.483 255.951 342.316 254.784 343 253.5C343.333 253.833 343.667 254.167 344 254.5C345.133 252.789 346.633 252.289 348.5 253C347.542 254.147 347.875 255.147 349.5 256C347.833 257.667 346.167 259.333 344.5 261C348.19 261.08 351.856 260.58 355.5 259.5C356.859 257.694 356.525 256.194 354.5 255C356.883 254.935 357.55 254.102 356.5 252.5C359.301 251.89 362.135 252.224 365 253.5C368.146 252.808 368.313 253.808 365.5 256.5C362.215 254.021 360.215 254.521 359.5 258C360.328 258.915 361.328 259.581 362.5 260C361.115 261.965 361.282 263.798 363 265.5C363.667 264.167 364.333 262.833 365 261.5C368.368 259.465 371.035 256.799 373 253.5C373.559 249.814 374.226 246.147 375 242.5C376.375 244.937 376.875 247.603 376.5 250.5Z" fill="#19CAEA"/>
<path fill-rule="evenodd" clip-rule="evenodd" d="M79.5 266.5C82.407 271.079 86.074 275.079 90.5 278.5C93.106 279.652 95.773 279.818 98.5 279C103.787 273.553 108.453 267.72 112.5 261.5C112.815 263.226 112.981 264.893 113 266.5C109.887 271.942 106.053 276.775 101.5 281C105.353 281.662 105.353 282.496 101.5 283.5C100.353 283.182 99.519 282.516 99 281.5C98.333 282.5 98.333 283.5 99 284.5C100.609 285.147 102.109 285.98 103.5 287C103.167 287.333 102.833 287.667 102.5 288C104.019 289.351 105.352 290.851 106.5 292.5C108.426 293.061 110.426 293.227 112.5 293C114.252 295.334 116.419 297.167 119 298.5C119.567 295.353 121.234 293.02 124 291.5C124.833 292.5 125.667 293.5 126.5 294.5C127.842 292.995 129.508 292.328 131.5 292.5C131.215 294.288 131.548 295.955 132.5 297.5C133.308 297.192 133.975 296.692 134.5 296C133.483 294.951 133.316 293.784 134 292.5C134.893 293.711 135.726 293.711 136.5 292.5C135.624 291.749 134.624 291.249 133.5 291C135.5 287.667 137.5 287.667 139.5 291C138.833 291.333 138.167 291.667 137.5 292C138.931 292.465 140.097 293.299 141 294.5C142.34 293.132 143.674 291.799 145 290.5C146.225 290.862 147.391 291.362 148.5 292C146.039 293.415 143.706 294.915 141.5 296.5C142.384 298.942 144.051 299.775 146.5 299C148.735 297.65 150.068 296.15 150.5 294.5C151.192 295.025 151.692 295.692 152 296.5C155.887 291.187 159.221 285.521 162 279.5C162.49 280.793 162.657 282.127 162.5 283.5C159.967 289.233 157.134 294.9 154 300.5C153.292 301.381 152.458 302.047 151.5 302.5C151.294 300.451 150.461 300.117 149 301.5C146.406 304.755 144.239 308.255 142.5 312C140.866 312.494 139.199 312.66 137.5 312.5C137.628 314.655 137.128 316.655 136 318.5C125.957 329.105 113.79 335.938 99.5 339C92.5 339.333 85.5 339.667 78.5 340C85.128 341.052 91.794 341.552 98.5 341.5C88.058 343.555 78.058 342.222 68.5 337.5C71.176 338.008 73.843 338.175 76.5 338C73.617 336.411 72.117 333.911 72 330.5C69.441 329.976 66.941 330.642 64.5 332.5C60.64 330.733 57.307 328.233 54.5 325C54.645 324.228 54.978 323.561 55.5 323C53.744 322.798 52.078 322.298 50.5 321.5C40.929 312.436 33.095 302.103 27 290.5C25.0924 287.668 24.259 288.001 24.5 291.5C22.5486 289.52 21.0486 287.187 20 284.5C18.2328 279.678 16.3994 275.012 14.5 270.5C13.8676 266.8 13.3676 263.133 13 259.5C14.2579 261.764 15.4246 264.098 16.5 266.5C21.6399 264.106 21.6399 261.606 16.5 259C18.6077 255.66 20.1077 255.827 21 259.5C21.3076 258.692 21.8076 258.025 22.5 257.5C24.3362 258.796 26.336 259.63 28.5 260C27.5 260.833 26.5 261.667 25.5 262.5C28.054 263.303 29.888 262.303 31 259.5C31.741 260.641 32.575 260.641 33.5 259.5C35.516 261.249 37.182 263.249 38.5 265.5C39.281 264.271 39.781 262.938 40 261.5C41.494 260.253 42.994 260.253 44.5 261.5C43.263 262.281 42.263 263.281 41.5 264.5C43.056 266.701 44.223 266.701 45 264.5C46.019 265.687 47.186 266.687 48.5 267.5C49.289 262.947 50.956 262.447 53.5 266C50.543 268.184 50.877 269.351 54.5 269.5C54.167 266.5 55.5 265.167 58.5 265.5C58.343 266.873 58.51 268.207 59 269.5C60.455 267.395 61.955 265.395 63.5 263.5C63.833 263.833 64.167 264.167 64.5 264.5C62.522 265.803 62.522 267.469 64.5 269.5C65.72 269.113 66.387 268.28 66.5 267C65.508 264.313 66.508 262.98 69.5 263C69.509 264.73 69.842 266.563 70.5 268.5C71.503 266.458 72.837 266.125 74.5 267.5C75.123 270.745 76.79 273.245 79.5 275C78.313 276.019 77.313 277.186 76.5 278.5C78.712 279.047 80.379 278.047 81.5 275.5C79.981 272.956 78.648 270.289 77.5 267.5C77.957 266.702 78.624 266.369 79.5 266.5Z" fill="#17CAEB"/>
<path fill-rule="evenodd" clip-rule="evenodd" d="M184.5 224.5C178.542 244.726 171.208 264.393 162.5 283.5C162.657 282.127 162.49 280.793 162 279.5C159.221 285.521 155.887 291.187 152 296.5C151.692 295.692 151.192 295.025 150.5 294.5C150.068 296.15 148.735 297.65 146.5 299C144.051 299.775 142.384 298.942 141.5 296.5C143.706 294.915 146.039 293.415 148.5 292C147.391 291.362 146.225 290.862 145 290.5C143.674 291.799 142.34 293.132 141 294.5C140.097 293.299 138.931 292.465 137.5 292C138.167 291.667 138.833 291.333 139.5 291C137.5 287.667 135.5 287.667 133.5 291C134.624 291.249 135.624 291.749 136.5 292.5C135.726 293.711 134.893 293.711 134 292.5C133.316 293.784 133.483 294.951 134.5 296C133.975 296.692 133.308 297.192 132.5 297.5C131.548 295.955 131.215 294.288 131.5 292.5C129.508 292.328 127.842 292.995 126.5 294.5C125.667 293.5 124.833 292.5 124 291.5C121.234 293.02 119.567 295.353 119 298.5C116.419 297.167 114.252 295.334 112.5 293C110.426 293.227 108.426 293.061 106.5 292.5C105.352 290.851 104.019 289.351 102.5 288C102.833 287.667 103.167 287.333 103.5 287C102.109 285.98 100.609 285.147 99 284.5C98.333 283.5 98.333 282.5 99 281.5C99.519 282.516 100.353 283.182 101.5 283.5C105.353 282.496 105.353 281.662 101.5 281C106.053 276.775 109.887 271.942 113 266.5C112.981 264.893 112.815 263.226 112.5 261.5C116.011 255.137 118.844 248.471 121 241.5C121.671 240.748 122.504 240.414 123.5 240.5C124.222 240.082 124.722 239.416 125 238.5C124.973 242.95 124.14 247.283 122.5 251.5C122.833 252.5 123.167 253.5 123.5 254.5C124.833 253.5 126.167 252.5 127.5 251.5C128.086 251.709 128.586 252.043 129 252.5C131.009 251.167 132.676 249.5 134 247.5C135.584 248.861 137.418 249.528 139.5 249.5C139.5 250.833 139.5 252.167 139.5 253.5C138.022 253.238 136.689 253.571 135.5 254.5C132.743 257.316 133.243 257.982 137 256.5C137.249 257.624 137.749 258.624 138.5 259.5C138.533 258.011 139.033 256.678 140 255.5C140.902 258.804 142.236 259.138 144 256.5C147.589 257.518 148.089 259.185 145.5 261.5C146.14 264.648 147.14 264.981 148.5 262.5C151.996 263.478 152.33 262.644 149.5 260C151.701 259.175 153.534 259.675 155 261.5C156.333 260.833 157.667 260.167 159 259.5C159.451 261.929 160.285 262.096 161.5 260C159.909 257.867 157.909 256.201 155.5 255C156.167 254.833 156.833 254.667 157.5 254.5C159.775 255.598 161.942 256.932 164 258.5C164.333 257.833 164.667 257.167 165 256.5C166.807 257.861 167.807 259.195 168 260.5C168.945 260.095 169.612 259.428 170 258.5C171.124 253.301 172.957 248.301 175.5 243.5C176.139 240.85 176.139 238.016 175.5 235C176.448 234.517 177.448 234.351 178.5 234.5C178.337 232.143 178.503 229.81 179 227.5C181.854 224.386 183.021 220.719 182.5 216.5C184.238 213.122 185.238 209.789 185.5 206.5C186.75 206.423 187.583 205.756 188 204.5C188.167 205.167 188.333 205.833 188.5 206.5C186.149 212.232 184.816 218.232 184.5 224.5Z" fill="#19D1EC"/>
<path fill-rule="evenodd" clip-rule="evenodd" d="M68.5 337.5C64.444 335.975 60.444 334.141 56.5 332C47.265 323.435 38.765 314.268 31 304.5C28.82 300.14 26.653 295.807 24.5 291.5C24.259 288.001 25.0924 287.668 27 290.5C33.095 302.103 40.929 312.436 50.5 321.5C52.078 322.298 53.744 322.798 55.5 323C54.978 323.561 54.645 324.228 54.5 325C57.307 328.233 60.64 330.733 64.5 332.5C66.941 330.642 69.441 329.976 72 330.5C72.117 333.911 73.617 336.411 76.5 338C73.843 338.175 71.176 338.008 68.5 337.5Z" fill="#2BC0E8"/>
<path fill-rule="evenodd" clip-rule="evenodd" d="M352.5 304.5C342.226 322.113 327.893 335.113 309.5 343.5C308.5 343.5 307.5 343.5 306.5 343.5C306.918 342.778 307.584 342.278 308.5 342C307.167 341.833 305.833 341.667 304.5 341.5C291.628 343.763 279.295 342.263 267.5 337C263.844 333.837 259.844 331.171 255.5 329C253.3 326.303 250.967 323.803 248.5 321.5C249.827 320.2 251.16 318.867 252.5 317.5C254.467 318.682 255.8 318.015 256.5 315.5C257.782 317.179 258.782 319.013 259.5 321C259.167 321.333 258.833 321.667 258.5 322C259.5 322.667 260.5 322.667 261.5 322C262.946 319.507 262.279 317.673 259.5 316.5C261.348 313.522 263.348 313.188 265.5 315.5C264.572 316.768 264.405 318.101 265 319.5C266.512 320.257 267.846 321.257 269 322.5C269.333 321.5 269.667 320.5 270 319.5C271.816 321.441 273.816 322.108 276 321.5C277.044 320.377 277.71 319.044 278 317.5C279 319.167 280 320.833 281 322.5C281.414 322.043 281.914 321.709 282.5 321.5C283.652 323.818 285.319 325.652 287.5 327C285.947 328.097 284.614 329.43 283.5 331C286.597 331.395 289.264 330.562 291.5 328.5C289.724 327.685 289.057 326.518 289.5 325C291.39 321.554 292.89 321.721 294 325.5C296.822 323.257 299.155 320.59 301 317.5C302.648 318.717 304.481 319.55 306.5 320C305.549 320.718 305.383 321.551 306 322.5C306.923 321.241 307.757 319.908 308.5 318.5C311.059 320.457 310.726 322.123 307.5 323.5C307.833 324.5 308.5 325.167 309.5 325.5C312.384 321.344 314.718 321.678 316.5 326.5C312.864 327.936 312.697 329.603 316 331.5C317.019 330.313 318.186 329.313 319.5 328.5C320.192 329.025 320.692 329.692 321 330.5C321.827 329.338 322.66 328.171 323.5 327C323.167 326.5 322.833 326 322.5 325.5C320.461 326.359 319.128 325.526 318.5 323C320.67 318.666 323.17 318.166 326 321.5C327.067 320.809 328.234 320.309 329.5 320C328.167 319.333 327.167 318.333 326.5 317C327 316.833 327.5 316.667 328 316.5C329.171 317.34 330.338 318.173 331.5 319C330.073 324.029 327.239 324.863 323 321.5C322.5 321.833 322 322.167 321.5 322.5C323.162 323.327 324.495 324.493 325.5 326C327.5 326.667 329.5 326.667 331.5 326C332.337 324.989 332.67 323.822 332.5 322.5C335.766 322.567 337.266 320.901 337 317.5C339.868 316.639 342.202 314.972 344 312.5C345.523 308.148 348.023 304.481 351.5 301.5C352.386 302.325 352.719 303.325 352.5 304.5Z" fill="#1AC6EA"/>
<path fill-rule="evenodd" clip-rule="evenodd" d="M151.5 302.5C142.15 319.017 128.816 331.183 111.5 339C107.278 340.446 102.945 341.28 98.5 341.5C91.794 341.552 85.128 341.052 78.5 340C85.5 339.667 92.5 339.333 99.5 339C113.79 335.938 125.957 329.105 136 318.5C137.128 316.655 137.628 314.655 137.5 312.5C139.199 312.66 140.866 312.494 142.5 312C144.239 308.255 146.406 304.755 149 301.5C150.461 300.117 151.294 300.451 151.5 302.5Z" fill="#27BEE7"/>
<path fill-rule="evenodd" clip-rule="evenodd" d="M248.5 321.5C250.967 323.803 253.3 326.303 255.5 329C259.844 331.171 263.844 333.837 267.5 337C279.295 342.263 291.628 343.763 304.5 341.5C305.833 341.667 307.167 341.833 308.5 342C307.584 342.278 306.918 342.778 306.5 343.5C298.7 345.36 290.7 346.027 282.5 345.5C262.362 339.922 246.695 328.255 235.5 310.5C234.708 309.033 234.708 307.7 235.5 306.5C237.85 308.687 239.85 311.187 241.5 314C242.448 314.483 243.448 314.649 244.5 314.5C244.149 317.812 245.482 320.145 248.5 321.5Z" fill="#27BEE7"/>
<path fill-rule="evenodd" clip-rule="evenodd" d="M306.5 343.5C307.5 343.5 308.5 343.5 309.5 343.5C308.282 344.161 306.949 344.828 305.5 345.5C297.677 346.82 290.01 346.82 282.5 345.5C290.7 346.027 298.7 345.36 306.5 343.5Z" fill="#C2EDF8"/>
</g>
<path d="M511.298 283L452.096 105.9H478.155L532.55 269.338H519.394L575.813 105.9H599.089L654.243 269.338H641.593L696.747 105.9H720.782L661.58 283H635.015L583.403 131.453H590.234L538.369 283H511.298ZM738.069 283V148.91H762.357V283H738.069ZM750.213 123.104C745.49 123.104 741.527 121.586 738.322 118.55C735.286 115.514 733.768 111.803 733.768 107.418C733.768 102.864 735.286 99.069 738.322 96.033C741.527 92.997 745.49 91.479 750.213 91.479C754.936 91.479 758.815 92.997 761.851 96.033C765.056 98.9003 766.658 102.527 766.658 106.912C766.658 111.466 765.14 115.345 762.104 118.55C759.068 121.586 755.104 123.104 750.213 123.104ZM856.042 284.518C842.549 284.518 830.573 281.566 820.116 275.663C809.659 269.76 801.394 261.664 795.322 251.375C789.25 240.918 786.214 229.111 786.214 215.955C786.214 202.63 789.25 190.824 795.322 180.535C801.394 170.246 809.659 162.235 820.116 156.5C830.573 150.597 842.549 147.645 856.042 147.645C869.367 147.645 881.258 150.597 891.715 156.5C902.341 162.235 910.606 170.246 916.509 180.535C922.581 190.655 925.617 202.462 925.617 215.955C925.617 229.28 922.581 241.086 916.509 251.375C910.606 261.664 902.341 269.76 891.715 275.663C881.258 281.566 869.367 284.518 856.042 284.518ZM856.042 263.266C864.644 263.266 872.318 261.326 879.065 257.447C885.98 253.568 891.378 248.086 895.257 241.002C899.136 233.749 901.076 225.4 901.076 215.955C901.076 206.341 899.136 198.076 895.257 191.161C891.378 184.077 885.98 178.595 879.065 174.716C872.318 170.837 864.644 168.897 856.042 168.897C847.44 168.897 839.766 170.837 833.019 174.716C826.272 178.595 820.875 184.077 816.827 191.161C812.779 198.076 810.755 206.341 810.755 215.955C810.755 225.4 812.779 233.749 816.827 241.002C820.875 248.086 826.272 253.568 833.019 257.447C839.766 261.326 847.44 263.266 856.042 263.266ZM1089.64 285.024C1076.15 285.024 1063.67 282.831 1052.2 278.446C1040.9 273.892 1031.03 267.567 1022.6 259.471C1014.33 251.206 1007.84 241.592 1003.12 230.629C998.394 219.666 996.032 207.606 996.032 194.45C996.032 181.294 998.394 169.234 1003.12 158.271C1007.84 147.308 1014.42 137.778 1022.85 129.682C1031.28 121.417 1041.15 115.092 1052.45 110.707C1063.92 106.153 1076.4 103.876 1089.9 103.876C1103.56 103.876 1116.12 106.237 1127.59 110.96C1139.23 115.514 1149.1 122.345 1157.19 131.453L1140.75 147.392C1134 140.308 1126.41 135.079 1117.98 131.706C1109.54 128.164 1100.52 126.393 1090.91 126.393C1080.96 126.393 1071.68 128.08 1063.08 131.453C1054.64 134.826 1047.31 139.549 1041.07 145.621C1034.83 151.693 1029.93 158.946 1026.39 167.379C1023.02 175.644 1021.33 184.667 1021.33 194.45C1021.33 204.233 1023.02 213.341 1026.39 221.774C1029.93 230.039 1034.83 237.207 1041.07 243.279C1047.31 249.351 1054.64 254.074 1063.08 257.447C1071.68 260.82 1080.96 262.507 1090.91 262.507C1100.52 262.507 1109.54 260.82 1117.98 257.447C1126.41 253.905 1134 248.508 1140.75 241.255L1157.19 257.194C1149.1 266.302 1139.23 273.217 1127.59 277.94C1116.12 282.663 1103.47 285.024 1089.64 285.024ZM1261.13 283V254.664L1259.87 249.351V201.028C1259.87 190.739 1256.83 182.812 1250.76 177.246C1244.85 171.511 1235.92 168.644 1223.94 168.644C1216.01 168.644 1208.25 169.993 1200.66 172.692C1193.07 175.222 1186.66 178.68 1181.44 183.065L1171.32 164.849C1178.23 159.283 1186.5 155.066 1196.11 152.199C1205.89 149.163 1216.1 147.645 1226.72 147.645C1245.11 147.645 1259.28 152.115 1269.23 161.054C1279.18 169.993 1284.15 183.655 1284.15 202.04V283H1261.13ZM1217.11 284.518C1207.16 284.518 1198.39 282.831 1190.8 279.458C1183.38 276.085 1177.64 271.446 1173.59 265.543C1169.54 259.471 1167.52 252.64 1167.52 245.05C1167.52 237.797 1169.21 231.219 1172.58 225.316C1176.12 219.413 1181.77 214.69 1189.53 211.148C1197.46 207.606 1208.09 205.835 1221.41 205.835H1263.91V223.292H1222.42C1210.28 223.292 1202.1 225.316 1197.88 229.364C1193.66 233.412 1191.56 238.303 1191.56 244.038C1191.56 250.616 1194.17 255.929 1199.4 259.977C1204.63 263.856 1211.88 265.796 1221.16 265.796C1230.26 265.796 1238.19 263.772 1244.94 259.724C1251.85 255.676 1256.83 249.773 1259.87 242.014L1264.67 258.712C1261.47 266.639 1255.82 272.964 1247.72 277.687C1239.63 282.241 1229.42 284.518 1217.11 284.518ZM1318.98 283V148.91H1342.26V185.342L1339.98 176.234C1343.69 166.957 1349.93 159.873 1358.7 154.982C1367.47 150.091 1378.27 147.645 1391.09 147.645V171.174C1390.07 171.005 1389.06 170.921 1388.05 170.921C1387.21 170.921 1386.36 170.921 1385.52 170.921C1372.53 170.921 1362.24 174.8 1354.65 182.559C1347.06 190.318 1343.27 201.534 1343.27 216.208V283H1318.98ZM1469.37 284.518C1455.04 284.518 1442.39 281.566 1431.42 275.663C1420.63 269.76 1412.2 261.664 1406.12 251.375C1400.22 241.086 1397.27 229.28 1397.27 215.955C1397.27 202.63 1400.14 190.824 1405.87 180.535C1411.77 170.246 1419.79 162.235 1429.91 156.5C1440.19 150.597 1451.75 147.645 1464.57 147.645C1477.55 147.645 1489.02 150.512 1498.97 156.247C1508.93 161.982 1516.68 170.078 1522.25 180.535C1527.99 190.824 1530.85 202.883 1530.85 216.714C1530.85 217.726 1530.77 218.907 1530.6 220.256C1530.6 221.605 1530.52 222.87 1530.35 224.051H1416.24V206.594H1517.7L1507.83 212.666C1508 204.064 1506.23 196.39 1502.52 189.643C1498.81 182.896 1493.66 177.668 1487.08 173.957C1480.67 170.078 1473.17 168.138 1464.57 168.138C1456.13 168.138 1448.63 170.078 1442.05 173.957C1435.47 177.668 1430.33 182.981 1426.62 189.896C1422.91 196.643 1421.05 204.401 1421.05 213.172V217.22C1421.05 226.159 1423.07 234.171 1427.12 241.255C1431.34 248.17 1437.16 253.568 1444.58 257.447C1452 261.326 1460.52 263.266 1470.13 263.266C1478.06 263.266 1485.23 261.917 1491.64 259.218C1498.22 256.519 1503.95 252.471 1508.84 247.074L1522.25 262.76C1516.18 269.844 1508.59 275.241 1499.48 278.952C1490.54 282.663 1480.51 284.518 1469.37 284.518Z" fill="white"/>
</g>
<defs>
<clipPath id="clip0_143_3085">
<rect width="1542" height="346" fill="white"/>
</clipPath>
<clipPath id="clip1_143_3085">
<rect width="383" height="346" fill="white"/>
</clipPath>
</defs>
</svg>
